<?xml version="1.0" encoding="UTF-8" standalone="no"?><svg xmlns="http://www.w3.org/2000/svg" xmlns:xlink="http://www.w3.org/1999/xlink" clip-rule="evenodd" stroke-miterlimit="10" viewBox="0 0 1024 768"><desc>SVG generated by Keynote</desc><defs></defs><g transform="matrix(1.00, 0.00, -0.00, -1.00, 0.0, 768.0)"><g><clipPath id="clip0x6100008aada0"><path d="M 0.0 768.0 L 1024.0 768.0 L 1024.0 0.0 L 0.0 0.0 Z M 0.0 768.0 "></path></clipPath><g clip-path="url(#clip0x6100008aada0)"><image xlink:href="../../6CCEAA6E-8BB5-465D-8F4F-15040D485A15/assets/A26A31D53D3A482F596EEDFB4E479282.jpeg" width="1024.00" height="768.00" transform="matrix(1.00, 0.00, -0.00, -1.00, 0.0, 768.0)"></image></g></g><text xml:space="preserve" font-family="AmericanTypewriter,American Typewriter" font-size="70.0" fill="#FFFFFF" transform="matrix(1.00, 0.00, -0.00, -1.00, 112.3, 688.5)">2</text><text xml:space="preserve" font-family="AmericanTypewriter,American Typewriter" font-size="70.0" fill="#FFFFFF" transform="matrix(1.00, 0.00, -0.00, -1.00, 156.9, 688.5)">0</text><text xml:space="preserve" font-family="AmericanTypewriter,American Typewriter" font-size="70.0" fill="#FFFFFF" transform="matrix(1.00, 0.00, -0.00, -1.00, 195.0, 688.5)">1</text><text xml:space="preserve" font-family="AmericanTypewriter,American Typewriter" font-size="70.0" fill="#FFFFFF" transform="matrix(1.00, 0.00, -0.00, -1.00, 234.9, 688.5)">5</text><text xml:space="preserve" font-family="AmericanTypewriter,American Typewriter" font-size="70.0" fill="#FFFFFF" transform="matrix(1.00, 0.00, -0.00, -1.00, 279.5, 688.5)"> </text><text xml:space="preserve" font-family="AmericanTypewriter,American Typewriter" font-size="70.0" fill="#FFFFFF" transform="matrix(1.00, 0.00, -0.00, -1.00, 297.0, 688.5)">B</text><text xml:space="preserve" font-family="AmericanTypewriter,American Typewriter" font-size="70.0" fill="#FFFFFF" transform="matrix(1.00, 0.00, -0.00, -1.00, 345.5, 688.5)">o</text><text xml:space="preserve" font-family="AmericanTypewriter,American Typewriter" font-size="70.0" fill="#FFFFFF" transform="matrix(1.00, 0.00, -0.00, -1.00, 383.7, 688.5)">a</text><text xml:space="preserve" font-family="AmericanTypewriter,American Typewriter" font-size="70.0" fill="#FFFFFF" transform="matrix(1.00, 0.00, -0.00, -1.00, 423.2, 688.5)">r</text><text xml:space="preserve" font-family="AmericanTypewriter,American Typewriter" font-size="70.0" fill="#FFFFFF" transform="matrix(1.00, 0.00, -0.00, -1.00, 457.5, 688.5)">d</text><text xml:space="preserve" font-family="AmericanTypewriter,American Typewriter" font-size="70.0" fill="#FFFFFF" transform="matrix(1.00, 0.00, -0.00, -1.00, 499.5, 688.5)"> </text><text xml:space="preserve" font-family="AmericanTypewriter,American Typewriter" font-size="70.0" fill="#FFFFFF" transform="matrix(1.00, 0.00, -0.00, -1.00, 517.0, 688.5)">o</text><text xml:space="preserve" font-family="AmericanTypewriter,American Typewriter" font-size="70.0" fill="#FFFFFF" transform="matrix(1.00, 0.00, -0.00, -1.00, 555.3, 688.5)">f</text><text xml:space="preserve" font-family="AmericanTypewriter,American Typewriter" font-size="70.0" fill="#FFFFFF" transform="matrix(1.00, 0.00, -0.00, -1.00, 579.5, 688.5)"> </text><text xml:space="preserve" font-family="AmericanTypewriter,American Typewriter" font-size="70.0" fill="#FFFFFF" transform="matrix(1.00, 0.00, -0.00, -1.00, 597.0, 688.5)">D</text><text xml:space="preserve" font-family="AmericanTypewriter,American Typewriter" font-size="70.0" fill="#FFFFFF" transform="matrix(1.00, 0.00, -0.00, -1.00, 647.9, 688.5)">i</text><text xml:space="preserve" font-family="AmericanTypewriter,American Typewriter" font-size="70.0" fill="#FFFFFF" transform="matrix(1.00, 0.00, -0.00, -1.00, 669.6, 688.5)">r</text><text xml:space="preserve" font-family="AmericanTypewriter,American Typewriter" font-size="70.0" fill="#FFFFFF" transform="matrix(1.00, 0.00, -0.00, -1.00, 704.0, 688.5)">e</text><text xml:space="preserve" font-family="AmericanTypewriter,American Typewriter" font-size="70.0" fill="#FFFFFF" transform="matrix(1.00, 0.00, -0.00, -1.00, 741.0, 688.5)">c</text><text xml:space="preserve" font-family="AmericanTypewriter,American Typewriter" font-size="70.0" fill="#FFFFFF" transform="matrix(1.00, 0.00, -0.00, -1.00, 776.7, 688.5)">t</text><text xml:space="preserve" font-family="AmericanTypewriter,American Typewriter" font-size="70.0" fill="#FFFFFF" transform="matrix(1.00, 0.00, -0.00, -1.00, 804.7, 688.5)">o</text><text xml:space="preserve" font-family="AmericanTypewriter,American Typewriter" font-size="70.0" fill="#FFFFFF" transform="matrix(1.00, 0.00, -0.00, -1.00, 842.9, 688.5)">r</text><text xml:space="preserve" font-family="AmericanTypewriter,American Typewriter" font-size="70.0" fill="#FFFFFF" transform="matrix(1.00, 0.00, -0.00, -1.00, 877.3, 688.5)">s</text><text xml:space="preserve" font-family="AmericanTypewriter,American Typewriter" font-size="70.0" fill="#FFFFFF" transform="matrix(1.00, 0.00, -0.00, -1.00, 911.7, 688.5)"> </text><g><clipPath id="clip0x618000ca3540"><path d="M 68.8 595.0 L 955.2 595.0 L 955.2 752.0 L 68.8 752.0 Z M 68.8 595.0 "></path></clipPath><g clip-path="url(#clip0x618000ca3540)"><text xml:space="preserve" font-family="AmericanTypewriter,American Typewriter" font-size="70.0" fill="#FFFFFF" transform="matrix(1.00, 0.00, -0.00, -1.00, 357.8, 607.5)">E</text><text xml:space="preserve" font-family="AmericanTypewriter,American Typewriter" font-size="70.0" fill="#FFFFFF" transform="matrix(1.00, 0.00, -0.00, -1.00, 404.9, 607.5)">l</text><text xml:space="preserve" font-family="AmericanTypewriter,American Typewriter" font-size="70.0" fill="#FFFFFF" transform="matrix(1.00, 0.00, -0.00, -1.00, 426.6, 607.5)">e</text><text xml:space="preserve" font-family="AmericanTypewriter,American Typewriter" font-size="70.0" fill="#FFFFFF" transform="matrix(1.00, 0.00, -0.00, -1.00, 463.5, 607.5)">c</text><text xml:space="preserve" font-family="AmericanTypewriter,American Typewriter" font-size="70.0" fill="#FFFFFF" transform="matrix(1.00, 0.00, -0.00, -1.00, 499.2, 607.5)">t</text><text xml:space="preserve" font-family="AmericanTypewriter,American Typewriter" font-size="70.0" fill="#FFFFFF" transform="matrix(1.00, 0.00, -0.00, -1.00, 527.2, 607.5)">i</text><text xml:space="preserve" font-family="AmericanTypewriter,American Typewriter" font-size="70.0" fill="#FFFFFF" transform="matrix(1.00, 0.00, -0.00, -1.00, 548.9, 607.5)">o</text><text xml:space="preserve" font-family="AmericanTypewriter,American Typewriter" font-size="70.0" fill="#FFFFFF" transform="matrix(1.00, 0.00, -0.00, -1.00, 587.1, 607.5)">n</text><text xml:space="preserve" font-family="AmericanTypewriter,American Typewriter" font-size="70.0" fill="#FFFFFF" transform="matrix(1.00, 0.00, -0.00, -1.00, 631.7, 607.5)">s</text></g></g><text xml:space="preserve" font-family="AmericanTypewriter,American Typewriter" font-size="50.4" fill="#FFFFFF" transform="matrix(1.00, 0.00, -0.00, -1.00, 116.0, 522.5)">•</text><text xml:space="preserve" font-family="AmericanTypewriter,American Typewriter" font-size="42.0" fill="#FFFFFF" transform="matrix(1.00, 0.00, -0.00, -1.00, 160.2, 526.4)">J</text><text xml:space="preserve" font-family="AmericanTypewriter,American Typewriter" font-size="42.0" fill="#FFFFFF" transform="matrix(1.00, 0.00, -0.00, -1.00, 186.2, 526.4)">a</text><text xml:space="preserve" font-family="AmericanTypewriter,American Typewriter" font-size="42.0" fill="#FFFFFF" transform="matrix(1.00, 0.00, -0.00, -1.00, 209.9, 526.4)">s</text><text xml:space="preserve" font-family="AmericanTypewriter,American Typewriter" font-size="42.0" fill="#FFFFFF" transform="matrix(1.00, 0.00, -0.00, -1.00, 230.6, 526.4)">o</text><text xml:space="preserve" font-family="AmericanTypewriter,American Typewriter" font-size="42.0" fill="#FFFFFF" transform="matrix(1.00, 0.00, -0.00, -1.00, 253.5, 526.4)">n</text><text xml:space="preserve" font-family="AmericanTypewriter,American Typewriter" font-size="42.0" fill="#FFFFFF" transform="matrix(1.00, 0.00, -0.00, -1.00, 280.2, 526.4)"> </text><text xml:space="preserve" font-family="AmericanTypewriter,American Typewriter" font-size="42.0" fill="#FFFFFF" transform="matrix(1.00, 0.00, -0.00, -1.00, 290.7, 526.4)">S</text><text xml:space="preserve" font-family="AmericanTypewriter,American Typewriter" font-size="42.0" fill="#FFFFFF" transform="matrix(1.00, 0.00, -0.00, -1.00, 316.2, 526.4)">t</text><text xml:space="preserve" font-family="AmericanTypewriter,American Typewriter" font-size="42.0" fill="#FFFFFF" transform="matrix(1.00, 0.00, -0.00, -1.00, 333.0, 526.4)">a</text><text xml:space="preserve" font-family="AmericanTypewriter,American Typewriter" font-size="42.0" fill="#FFFFFF" transform="matrix(1.00, 0.00, -0.00, -1.00, 356.7, 526.4)">j</text><text xml:space="preserve" font-family="AmericanTypewriter,American Typewriter" font-size="42.0" fill="#FFFFFF" transform="matrix(1.00, 0.00, -0.00, -1.00, 369.0, 526.4)">i</text><text xml:space="preserve" font-family="AmericanTypewriter,American Typewriter" font-size="42.0" fill="#FFFFFF" transform="matrix(1.00, 0.00, -0.00, -1.00, 382.0, 526.4)">c</text><text xml:space="preserve" font-family="AmericanTypewriter,American Typewriter" font-size="42.0" fill="#FFFFFF" transform="matrix(1.00, 0.00, -0.00, -1.00, 402.8, 526.4)">h</text><text xml:space="preserve" font-family="AmericanTypewriter,American Typewriter" font-size="42.0" fill="#FFFFFF" transform="matrix(1.00, 0.00, -0.00, -1.00, 429.6, 526.4)"> </text><text xml:space="preserve" font-family="AmericanTypewriter,American Typewriter" font-size="42.0" fill="#FFFFFF" transform="matrix(1.00, 0.00, -0.00, -1.00, 440.1, 526.4)">a</text><text xml:space="preserve" font-family="AmericanTypewriter,American Typewriter" font-size="42.0" fill="#FFFFFF" transform="matrix(1.00, 0.00, -0.00, -1.00, 463.8, 526.4)">n</text><text xml:space="preserve" font-family="AmericanTypewriter,American Typewriter" font-size="42.0" fill="#FFFFFF" transform="matrix(1.00, 0.00, -0.00, -1.00, 490.5, 526.4)">d</text><text xml:space="preserve" font-family="AmericanTypewriter,American Typewriter" font-size="42.0" fill="#FFFFFF" transform="matrix(1.00, 0.00, -0.00, -1.00, 515.7, 526.4)"> </text><text xml:space="preserve" font-family="AmericanTypewriter,American Typewriter" font-size="42.0" fill="#FFFFFF" transform="matrix(1.00, 0.00, -0.00, -1.00, 526.2, 526.4)">C</text><text xml:space="preserve" font-family="AmericanTypewriter,American Typewriter" font-size="42.0" fill="#FFFFFF" transform="matrix(1.00, 0.00, -0.00, -1.00, 553.0, 526.4)">h</text><text xml:space="preserve" font-family="AmericanTypewriter,American Typewriter" font-size="42.0" fill="#FFFFFF" transform="matrix(1.00, 0.00, -0.00, -1.00, 579.7, 526.4)">r</text><text xml:space="preserve" font-family="AmericanTypewriter,American Typewriter" font-size="42.0" fill="#FFFFFF" transform="matrix(1.00, 0.00, -0.00, -1.00, 600.4, 526.4)">i</text><text xml:space="preserve" font-family="AmericanTypewriter,American Typewriter" font-size="42.0" fill="#FFFFFF" transform="matrix(1.00, 0.00, -0.00, -1.00, 613.4, 526.4)">s</text><text xml:space="preserve" font-family="AmericanTypewriter,American Typewriter" font-size="42.0" fill="#FFFFFF" transform="matrix(1.00, 0.00, -0.00, -1.00, 634.1, 526.4)"> </text><text xml:space="preserve" font-family="AmericanTypewriter,American Typewriter" font-size="42.0" fill="#FFFFFF" transform="matrix(1.00, 0.00, -0.00, -1.00, 644.6, 526.4)">D</text><text xml:space="preserve" font-family="AmericanTypewriter,American Typewriter" font-size="42.0" fill="#FFFFFF" transform="matrix(1.00, 0.00, -0.00, -1.00, 675.1, 526.4)">a</text><text xml:space="preserve" font-family="AmericanTypewriter,American Typewriter" font-size="42.0" fill="#FFFFFF" transform="matrix(1.00, 0.00, -0.00, -1.00, 698.8, 526.4)">g</text><text xml:space="preserve" font-family="AmericanTypewriter,American Typewriter" font-size="42.0" fill="#FFFFFF" transform="matrix(1.00, 0.00, -0.00, -1.00, 721.8, 526.4)">d</text><text xml:space="preserve" font-family="AmericanTypewriter,American Typewriter" font-size="42.0" fill="#FFFFFF" transform="matrix(1.00, 0.00, -0.00, -1.00, 747.0, 526.4)">i</text><text xml:space="preserve" font-family="AmericanTypewriter,American Typewriter" font-size="42.0" fill="#FFFFFF" transform="matrix(1.00, 0.00, -0.00, -1.00, 760.0, 526.4)">g</text><text xml:space="preserve" font-family="AmericanTypewriter,American Typewriter" font-size="42.0" fill="#FFFFFF" transform="matrix(1.00, 0.00, -0.00, -1.00, 782.9, 526.4)">i</text><text xml:space="preserve" font-family="AmericanTypewriter,American Typewriter" font-size="42.0" fill="#FFFFFF" transform="matrix(1.00, 0.00, -0.00, -1.00, 795.9, 526.4)">a</text><text xml:space="preserve" font-family="AmericanTypewriter,American Typewriter" font-size="42.0" fill="#FFFFFF" transform="matrix(1.00, 0.00, -0.00, -1.00, 819.6, 526.4)">n</text><text xml:space="preserve" font-family="AmericanTypewriter,American Typewriter" font-size="42.0" fill="#FFFFFF" transform="matrix(1.00, 0.00, -0.00, -1.00, 846.4, 526.4)"> </text><text xml:space="preserve" font-family="AmericanTypewriter,American Typewriter" font-size="42.0" fill="#FFFFFF" transform="matrix(1.00, 0.00, -0.00, -1.00, 160.2, 477.4)">s</text><text xml:space="preserve" font-family="AmericanTypewriter,American Typewriter" font-size="42.0" fill="#FFFFFF" transform="matrix(1.00, 0.00, -0.00, -1.00, 180.9, 477.4)">t</text><text xml:space="preserve" font-family="AmericanTypewriter,American Typewriter" font-size="42.0" fill="#FFFFFF" transform="matrix(1.00, 0.00, -0.00, -1.00, 197.7, 477.4)">e</text><text xml:space="preserve" font-family="AmericanTypewriter,American Typewriter" font-size="42.0" fill="#FFFFFF" transform="matrix(1.00, 0.00, -0.00, -1.00, 219.9, 477.4)">p</text><text xml:space="preserve" font-family="AmericanTypewriter,American Typewriter" font-size="42.0" fill="#FFFFFF" transform="matrix(1.00, 0.00, -0.00, -1.00, 245.1, 477.4)">p</text><text xml:space="preserve" font-family="AmericanTypewriter,American Typewriter" font-size="42.0" fill="#FFFFFF" transform="matrix(1.00, 0.00, -0.00, -1.00, 270.3, 477.4)">e</text><text xml:space="preserve" font-family="AmericanTypewriter,American Typewriter" font-size="42.0" fill="#FFFFFF" transform="matrix(1.00, 0.00, -0.00, -1.00, 292.4, 477.4)">d</text><text xml:space="preserve" font-family="AmericanTypewriter,American Typewriter" font-size="42.0" fill="#FFFFFF" transform="matrix(1.00, 0.00, -0.00, -1.00, 317.6, 477.4)"> </text><text xml:space="preserve" font-family="AmericanTypewriter,American Typewriter" font-size="42.0" fill="#FFFFFF" transform="matrix(1.00, 0.00, -0.00, -1.00, 328.1, 477.4)">d</text><text xml:space="preserve" font-family="AmericanTypewriter,American Typewriter" font-size="42.0" fill="#FFFFFF" transform="matrix(1.00, 0.00, -0.00, -1.00, 353.3, 477.4)">o</text><text xml:space="preserve" font-family="AmericanTypewriter,American Typewriter" font-size="42.0" fill="#FFFFFF" transform="matrix(1.00, 0.00, -0.00, -1.00, 375.8, 477.4)">w</text><text xml:space="preserve" font-family="AmericanTypewriter,American Typewriter" font-size="42.0" fill="#FFFFFF" transform="matrix(1.00, 0.00, -0.00, -1.00, 409.4, 477.4)">n</text><text xml:space="preserve" font-family="AmericanTypewriter,American Typewriter" font-size="42.0" fill="#FFFFFF" transform="matrix(1.00, 0.00, -0.00, -1.00, 436.2, 477.4)"> </text><text xml:space="preserve" font-family="AmericanTypewriter,American Typewriter" font-size="42.0" fill="#FFFFFF" transform="matrix(1.00, 0.00, -0.00, -1.00, 446.7, 477.4)">f</text><text xml:space="preserve" font-family="AmericanTypewriter,American Typewriter" font-size="42.0" fill="#FFFFFF" transform="matrix(1.00, 0.00, -0.00, -1.00, 461.2, 477.4)">r</text><text xml:space="preserve" font-family="AmericanTypewriter,American Typewriter" font-size="42.0" fill="#FFFFFF" transform="matrix(1.00, 0.00, -0.00, -1.00, 481.8, 477.4)">o</text><text xml:space="preserve" font-family="AmericanTypewriter,American Typewriter" font-size="42.0" fill="#FFFFFF" transform="matrix(1.00, 0.00, -0.00, -1.00, 504.8, 477.4)">m</text><text xml:space="preserve" font-family="AmericanTypewriter,American Typewriter" font-size="42.0" fill="#FFFFFF" transform="matrix(1.00, 0.00, -0.00, -1.00, 543.8, 477.4)"> </text><text xml:space="preserve" font-family="AmericanTypewriter,American Typewriter" font-size="42.0" fill="#FFFFFF" transform="matrix(1.00, 0.00, -0.00, -1.00, 554.3, 477.4)">t</text><text xml:space="preserve" font-family="AmericanTypewriter,American Typewriter" font-size="42.0" fill="#FFFFFF" transform="matrix(1.00, 0.00, -0.00, -1.00, 571.1, 477.4)">h</text><text xml:space="preserve" font-family="AmericanTypewriter,American Typewriter" font-size="42.0" fill="#FFFFFF" transform="matrix(1.00, 0.00, -0.00, -1.00, 597.8, 477.4)">e</text><text xml:space="preserve" font-family="AmericanTypewriter,American Typewriter" font-size="42.0" fill="#FFFFFF" transform="matrix(1.00, 0.00, -0.00, -1.00, 620.0, 477.4)"> </text><text xml:space="preserve" font-family="AmericanTypewriter,American Typewriter" font-size="42.0" fill="#FFFFFF" transform="matrix(1.00, 0.00, -0.00, -1.00, 630.5, 477.4)">B</text><text xml:space="preserve" font-family="AmericanTypewriter,American Typewriter" font-size="42.0" fill="#FFFFFF" transform="matrix(1.00, 0.00, -0.00, -1.00, 659.5, 477.4)">o</text><text xml:space="preserve" font-family="AmericanTypewriter,American Typewriter" font-size="42.0" fill="#FFFFFF" transform="matrix(1.00, 0.00, -0.00, -1.00, 682.5, 477.4)">a</text><text xml:space="preserve" font-family="AmericanTypewriter,American Typewriter" font-size="42.0" fill="#FFFFFF" transform="matrix(1.00, 0.00, -0.00, -1.00, 706.2, 477.4)">r</text><text xml:space="preserve" font-family="AmericanTypewriter,American Typewriter" font-size="42.0" fill="#FFFFFF" transform="matrix(1.00, 0.00, -0.00, -1.00, 726.8, 477.4)">d</text><text xml:space="preserve" font-family="AmericanTypewriter,American Typewriter" font-size="42.0" fill="#FFFFFF" transform="matrix(1.00, 0.00, -0.00, -1.00, 752.0, 477.4)">.</text><text xml:space="preserve" font-family="AmericanTypewriter,American Typewriter" font-size="42.0" fill="#FFFFFF" transform="matrix(1.00, 0.00, -0.00, -1.00, 763.5, 477.4)"> </text><text xml:space="preserve" font-family="AmericanTypewriter,American Typewriter" font-size="50.4" fill="#FFFFFF" transform="matrix(1.00, 0.00, -0.00, -1.00, 116.0, 392.5)">•</text><text xml:space="preserve" font-family="AmericanTypewriter,American Typewriter" font-size="42.0" fill="#FFFFFF" transform="matrix(1.00, 0.00, -0.00, -1.00, 160.2, 396.4)">T</text><text xml:space="preserve" font-family="AmericanTypewriter,American Typewriter" font-size="42.0" fill="#FFFFFF" transform="matrix(1.00, 0.00, -0.00, -1.00, 187.0, 396.4)">h</text><text xml:space="preserve" font-family="AmericanTypewriter,American Typewriter" font-size="42.0" fill="#FFFFFF" transform="matrix(1.00, 0.00, -0.00, -1.00, 213.7, 396.4)">e</text><text xml:space="preserve" font-family="AmericanTypewriter,American Typewriter" font-size="42.0" fill="#FFFFFF" transform="matrix(1.00, 0.00, -0.00, -1.00, 235.9, 396.4)">y</text><text xml:space="preserve" font-family="AmericanTypewriter,American Typewriter" font-size="42.0" fill="#FFFFFF" transform="matrix(1.00, 0.00, -0.00, -1.00, 261.1, 396.4)"> </text><text xml:space="preserve" font-family="AmericanTypewriter,American Typewriter" font-size="42.0" fill="#FFFFFF" transform="matrix(1.00, 0.00, -0.00, -1.00, 271.6, 396.4)">h</text><text xml:space="preserve" font-family="AmericanTypewriter,American Typewriter" font-size="42.0" fill="#FFFFFF" transform="matrix(1.00, 0.00, -0.00, -1.00, 298.4, 396.4)">a</text><text xml:space="preserve" font-family="AmericanTypewriter,American Typewriter" font-size="42.0" fill="#FFFFFF" transform="matrix(1.00, 0.00, -0.00, -1.00, 320.6, 396.4)">v</text><text xml:space="preserve" font-family="AmericanTypewriter,American Typewriter" font-size="42.0" fill="#FFFFFF" transform="matrix(1.00, 0.00, -0.00, -1.00, 345.2, 396.4)">e</text><text xml:space="preserve" font-family="AmericanTypewriter,American Typewriter" font-size="42.0" fill="#FFFFFF" transform="matrix(1.00, 0.00, -0.00, -1.00, 367.4, 396.4)"> </text><text xml:space="preserve" font-family="AmericanTypewriter,American Typewriter" font-size="42.0" fill="#FFFFFF" transform="matrix(1.00, 0.00, -0.00, -1.00, 377.9, 396.4)">b</text><text xml:space="preserve" font-family="AmericanTypewriter,American Typewriter" font-size="42.0" fill="#FFFFFF" transform="matrix(1.00, 0.00, -0.00, -1.00, 401.6, 396.4)">e</text><text xml:space="preserve" font-family="AmericanTypewriter,American Typewriter" font-size="42.0" fill="#FFFFFF" transform="matrix(1.00, 0.00, -0.00, -1.00, 423.8, 396.4)">e</text><text xml:space="preserve" font-family="AmericanTypewriter,American Typewriter" font-size="42.0" fill="#FFFFFF" transform="matrix(1.00, 0.00, -0.00, -1.00, 445.9, 396.4)">n</text><text xml:space="preserve" font-family="AmericanTypewriter,American Typewriter" font-size="42.0" fill="#FFFFFF" transform="matrix(1.00, 0.00, -0.00, -1.00, 472.7, 396.4)"> </text><text xml:space="preserve" font-family="AmericanTypewriter,American Typewriter" font-size="42.0" fill="#FFFFFF" transform="matrix(1.00, 0.00, -0.00, -1.00, 483.2, 396.4)">a</text><text xml:space="preserve" font-family="AmericanTypewriter,American Typewriter" font-size="42.0" fill="#FFFFFF" transform="matrix(1.00, 0.00, -0.00, -1.00, 506.9, 396.4)">m</text><text xml:space="preserve" font-family="AmericanTypewriter,American Typewriter" font-size="42.0" fill="#FFFFFF" transform="matrix(1.00, 0.00, -0.00, -1.00, 545.9, 396.4)">o</text><text xml:space="preserve" font-family="AmericanTypewriter,American Typewriter" font-size="42.0" fill="#FFFFFF" transform="matrix(1.00, 0.00, -0.00, -1.00, 568.8, 396.4)">n</text><text xml:space="preserve" font-family="AmericanTypewriter,American Typewriter" font-size="42.0" fill="#FFFFFF" transform="matrix(1.00, 0.00, -0.00, -1.00, 595.5, 396.4)">g</text><text xml:space="preserve" font-family="AmericanTypewriter,American Typewriter" font-size="42.0" fill="#FFFFFF" transform="matrix(1.00, 0.00, -0.00, -1.00, 618.5, 396.4)"> </text><text xml:space="preserve" font-family="AmericanTypewriter,American Typewriter" font-size="42.0" fill="#FFFFFF" transform="matrix(1.00, 0.00, -0.00, -1.00, 629.0, 396.4)">t</text><text xml:space="preserve" font-family="AmericanTypewriter,American Typewriter" font-size="42.0" fill="#FFFFFF" transform="matrix(1.00, 0.00, -0.00, -1.00, 645.8, 396.4)">h</text><text xml:space="preserve" font-family="AmericanTypewriter,American Typewriter" font-size="42.0" fill="#FFFFFF" transform="matrix(1.00, 0.00, -0.00, -1.00, 672.5, 396.4)">e</text><text xml:space="preserve" font-family="AmericanTypewriter,American Typewriter" font-size="42.0" fill="#FFFFFF" transform="matrix(1.00, 0.00, -0.00, -1.00, 694.7, 396.4)"> </text><text xml:space="preserve" font-family="AmericanTypewriter,American Typewriter" font-size="42.0" fill="#FFFFFF" transform="matrix(1.00, 0.00, -0.00, -1.00, 705.2, 396.4)">l</text><text xml:space="preserve" font-family="AmericanTypewriter,American Typewriter" font-size="42.0" fill="#FFFFFF" transform="matrix(1.00, 0.00, -0.00, -1.00, 718.2, 396.4)">o</text><text xml:space="preserve" font-family="AmericanTypewriter,American Typewriter" font-size="42.0" fill="#FFFFFF" transform="matrix(1.00, 0.00, -0.00, -1.00, 741.1, 396.4)">n</text><text xml:space="preserve" font-family="AmericanTypewriter,American Typewriter" font-size="42.0" fill="#FFFFFF" transform="matrix(1.00, 0.00, -0.00, -1.00, 767.9, 396.4)">g</text><text xml:space="preserve" font-family="AmericanTypewriter,American Typewriter" font-size="42.0" fill="#FFFFFF" transform="matrix(1.00, 0.00, -0.00, -1.00, 790.0, 396.4)">e</text><text xml:space="preserve" font-family="AmericanTypewriter,American Typewriter" font-size="42.0" fill="#FFFFFF" transform="matrix(1.00, 0.00, -0.00, -1.00, 812.2, 396.4)">s</text><text xml:space="preserve" font-family="AmericanTypewriter,American Typewriter" font-size="42.0" fill="#FFFFFF" transform="matrix(1.00, 0.00, -0.00, -1.00, 832.9, 396.4)">t</text><text xml:space="preserve" font-family="AmericanTypewriter,American Typewriter" font-size="42.0" fill="#FFFFFF" transform="matrix(1.00, 0.00, -0.00, -1.00, 849.7, 396.4)"> </text><text xml:space="preserve" font-family="AmericanTypewriter,American Typewriter" font-size="42.0" fill="#FFFFFF" transform="matrix(1.00, 0.00, -0.00, -1.00, 160.2, 347.4)">s</text><text xml:space="preserve" font-family="AmericanTypewriter,American Typewriter" font-size="42.0" fill="#FFFFFF" transform="matrix(1.00, 0.00, -0.00, -1.00, 180.9, 347.4)">e</text><text xml:space="preserve" font-family="AmericanTypewriter,American Typewriter" font-size="42.0" fill="#FFFFFF" transform="matrix(1.00, 0.00, -0.00, -1.00, 203.1, 347.4)">r</text><text xml:space="preserve" font-family="AmericanTypewriter,American Typewriter" font-size="42.0" fill="#FFFFFF" transform="matrix(1.00, 0.00, -0.00, -1.00, 223.7, 347.4)">v</text><text xml:space="preserve" font-family="AmericanTypewriter,American Typewriter" font-size="42.0" fill="#FFFFFF" transform="matrix(1.00, 0.00, -0.00, -1.00, 248.9, 347.4)">i</text><text xml:space="preserve" font-family="AmericanTypewriter,American Typewriter" font-size="42.0" fill="#FFFFFF" transform="matrix(1.00, 0.00, -0.00, -1.00, 261.9, 347.4)">n</text><text xml:space="preserve" font-family="AmericanTypewriter,American Typewriter" font-size="42.0" fill="#FFFFFF" transform="matrix(1.00, 0.00, -0.00, -1.00, 288.7, 347.4)">g</text><text xml:space="preserve" font-family="AmericanTypewriter,American Typewriter" font-size="42.0" fill="#FFFFFF" transform="matrix(1.00, 0.00, -0.00, -1.00, 311.6, 347.4)"> </text><text xml:space="preserve" font-family="AmericanTypewriter,American Typewriter" font-size="42.0" fill="#FFFFFF" transform="matrix(1.00, 0.00, -0.00, -1.00, 322.1, 347.4)">v</text><text xml:space="preserve" font-family="AmericanTypewriter,American Typewriter" font-size="42.0" fill="#FFFFFF" transform="matrix(1.00, 0.00, -0.00, -1.00, 346.9, 347.4)">o</text><text xml:space="preserve" font-family="AmericanTypewriter,American Typewriter" font-size="42.0" fill="#FFFFFF" transform="matrix(1.00, 0.00, -0.00, -1.00, 369.8, 347.4)">l</text><text xml:space="preserve" font-family="AmericanTypewriter,American Typewriter" font-size="42.0" fill="#FFFFFF" transform="matrix(1.00, 0.00, -0.00, -1.00, 382.8, 347.4)">u</text><text xml:space="preserve" font-family="AmericanTypewriter,American Typewriter" font-size="42.0" fill="#FFFFFF" transform="matrix(1.00, 0.00, -0.00, -1.00, 408.8, 347.4)">n</text><text xml:space="preserve" font-family="AmericanTypewriter,American Typewriter" font-size="42.0" fill="#FFFFFF" transform="matrix(1.00, 0.00, -0.00, -1.00, 435.6, 347.4)">t</text><text xml:space="preserve" font-family="AmericanTypewriter,American Typewriter" font-size="42.0" fill="#FFFFFF" transform="matrix(1.00, 0.00, -0.00, -1.00, 452.4, 347.4)">e</text><text xml:space="preserve" font-family="AmericanTypewriter,American Typewriter" font-size="42.0" fill="#FFFFFF" transform="matrix(1.00, 0.00, -0.00, -1.00, 474.5, 347.4)">e</text><text xml:space="preserve" font-family="AmericanTypewriter,American Typewriter" font-size="42.0" fill="#FFFFFF" transform="matrix(1.00, 0.00, -0.00, -1.00, 496.7, 347.4)">r</text><text xml:space="preserve" font-family="AmericanTypewriter,American Typewriter" font-size="42.0" fill="#FFFFFF" transform="matrix(1.00, 0.00, -0.00, -1.00, 517.3, 347.4)">s</text><text xml:space="preserve" font-family="AmericanTypewriter,American Typewriter" font-size="42.0" fill="#FFFFFF" transform="matrix(1.00, 0.00, -0.00, -1.00, 538.0, 347.4)"> </text><text xml:space="preserve" font-family="AmericanTypewriter,American Typewriter" font-size="42.0" fill="#FFFFFF" transform="matrix(1.00, 0.00, -0.00, -1.00, 548.5, 347.4)">f</text><text xml:space="preserve" font-family="AmericanTypewriter,American Typewriter" font-size="42.0" fill="#FFFFFF" transform="matrix(1.00, 0.00, -0.00, -1.00, 562.1, 347.4)">o</text><text xml:space="preserve" font-family="AmericanTypewriter,American Typewriter" font-size="42.0" fill="#FFFFFF" transform="matrix(1.00, 0.00, -0.00, -1.00, 585.0, 347.4)">r</text><text xml:space="preserve" font-family="AmericanTypewriter,American Typewriter" font-size="42.0" fill="#FFFFFF" transform="matrix(1.00, 0.00, -0.00, -1.00, 605.6, 347.4)"> </text><text xml:space="preserve" font-family="AmericanTypewriter,American Typewriter" font-size="42.0" fill="#FFFFFF" transform="matrix(1.00, 0.00, -0.00, -1.00, 616.1, 347.4)">O</text><text xml:space="preserve" font-family="AmericanTypewriter,American Typewriter" font-size="42.0" fill="#FFFFFF" transform="matrix(1.00, 0.00, -0.00, -1.00, 643.6, 347.4)">B</text><text xml:space="preserve" font-family="AmericanTypewriter,American Typewriter" font-size="42.0" fill="#FFFFFF" transform="matrix(1.00, 0.00, -0.00, -1.00, 672.7, 347.4)">F</text><text xml:space="preserve" font-family="AmericanTypewriter,American Typewriter" font-size="42.0" fill="#FFFFFF" transform="matrix(1.00, 0.00, -0.00, -1.00, 695.1, 347.4)">.</text><image xlink:href="../../B5618476-FB91-478A-8845-98AFCE7622F9/assets/239001CBDE281A9B8CCFEA96022C1903.png" width="591.00" height="176.00" transform="matrix(1.00, 0.00, -0.00, -1.00, 233.5, 310.8)" opacity="0.75"></image><g><clipPath id="clip0x600000cb27e0"><path d="M 232.5 182.8 L 233.0 296.8 C 233.0 305.0 239.2 312.0 247.5 312.0 L 776.5 312.0 C 784.8 312.0 792.0 305.0 792.0 296.8 L 792.0 182.8 C 792.0 174.5 784.8 168.0 776.5 168.0 L 247.5 168.0 C 239.2 168.0 232.5 174.5 232.5 182.8 Z M 232.5 182.8 "></path></clipPath><g clip-path="url(#clip0x600000cb27e0)"><image xlink:href="../../B5618476-FB91-478A-8845-98AFCE7622F9/assets/3D045E358652E5E6F97E0665DB2FF87C.png" width="846.00" height="164.00" transform="matrix(1.00, 0.00, -0.00, -1.00, 225.0, 321.0)"></image></g></g><image xlink:href="../../B5618476-FB91-478A-8845-98AFCE7622F9/assets/239001CBDE281A9B8CCFEA96022C1903.png" width="591.00" height="176.00" transform="matrix(1.00, 0.00, -0.00, -1.00, 233.5, 153.7)" opacity="0.75"></image><g><clipPath id="clip0x600000abd580"><path d="M 232.5 25.6 L 233.0 139.6 C 233.0 147.9 239.2 155.0 247.5 155.0 L 776.5 155.0 C 784.8 155.0 792.0 147.9 792.0 139.6 L 792.0 25.6 C 792.0 17.3 784.8 11.0 776.5 11.0 L 247.5 11.0 C 239.2 11.0 232.5 17.3 232.5 25.6 Z M 232.5 25.6 "></path></clipPath><g clip-path="url(#clip0x600000abd580)"><image xlink:href="../../B5618476-FB91-478A-8845-98AFCE7622F9/assets/2281B68E3A6F24605CAD4F9AC6B66219.png" width="845.00" height="165.00" transform="matrix(1.00, 0.00, -0.00, -1.00, 225.0, 163.0)"></image></g></g></g></svg>