<?xml version="1.0" encoding="UTF-8" standalone="no"?><svg xmlns="http://www.w3.org/2000/svg" xmlns:xlink="http://www.w3.org/1999/xlink" clip-rule="evenodd" stroke-miterlimit="10" viewBox="0 0 1024 768"><desc>SVG generated by Keynote</desc><defs></defs><g transform="matrix(1.00, 0.00, -0.00, -1.00, 0.0, 768.0)"><g><clipPath id="clip0x600000ea4020"><path d="M 0.0 768.0 L 1024.0 768.0 L 1024.0 0.0 L 0.0 0.0 Z M 0.0 768.0 "></path></clipPath><g clip-path="url(#clip0x600000ea4020)"><image xlink:href="../../6CCEAA6E-8BB5-465D-8F4F-15040D485A15/assets/A26A31D53D3A482F596EEDFB4E479282.jpeg" width="1024.00" height="768.00" transform="matrix(1.00, 0.00, -0.00, -1.00, 0.0, 768.0)"></image></g></g><g><clipPath id="clip0x6100008be600"><path d="M 2.0 84.8 L 591.0 84.8 L 591.0 281.2 L 2.0 281.2 Z M 2.0 84.8 "></path></clipPath><g clip-path="url(#clip0x6100008be600)"><image xlink:href="CADBB93ECAA3E0CD043402AF6F522C5B.png" width="587.00" height="177.00" transform="matrix(1.00, 0.00, -0.00, -1.00, 3.0, 262.2)" opacity="0.68"></image><path d="M 17.0 149.8 L 17.0 262.2 C 17.0 272.2 25.1 280.0 35.0 280.0 L 558.0 280.0 C 567.9 280.0 576.0 272.2 576.0 262.2 L 576.0 149.8 C 576.0 139.8 567.9 132.0 558.0 132.0 L 35.0 132.0 C 25.1 132.0 17.0 139.8 17.0 149.8 Z M 17.0 149.8 " fill="#FFFFFF"></path></g></g><g><clipPath id="clip0x600000ab8120"><path d="M 28.5 139.0 L 163.5 139.0 L 163.5 273.0 L 28.5 273.0 Z M 28.5 139.0 "></path></clipPath><g clip-path="url(#clip0x600000ab8120)"><image xlink:href="../../157F993E-E91D-4677-984E-3E3DBFC09861/assets/605DB4E465989723C9480BFDD013D345.png" width="400.00" height="400.00" transform="matrix(0.34, 0.00, -0.00, -0.34, 27.0, 275.0)"></image></g></g><g><clipPath id="clip0x600000cbf320"><path d="M 28.5 139.0 L 163.5 139.0 L 163.5 273.0 L 28.5 273.0 Z M 28.5 139.0 "></path></clipPath><g clip-path="url(#clip0x600000cbf320)"><image xlink:href="BAC6418CA4691C046DB5F672B00589F4.png" width="135.00" height="134.00" transform="matrix(1.00, 0.00, -0.00, 1.00, 28.0, 139.0)"></image></g></g><g><clipPath id="clip0x600000cac8a0"><path d="M 164.5 138.4 L 576.5 138.4 L 576.5 276.4 L 164.5 276.4 Z M 164.5 138.4 "></path></clipPath><g clip-path="url(#clip0x600000cac8a0)"><text xml:space="preserve" font-family="Arial-BoldMT,Arial" font-weight="bold" font-size="32.0" fill="#000000" transform="matrix(1.00, 0.00, -0.00, -1.00, 173.4, 238.3)">K</text><text xml:space="preserve" font-family="Arial-BoldMT,Arial" font-weight="bold" font-size="32.0" fill="#000000" transform="matrix(1.00, 0.00, -0.00, -1.00, 196.5, 238.3)">a</text><text xml:space="preserve" font-family="Arial-BoldMT,Arial" font-weight="bold" font-size="32.0" fill="#000000" transform="matrix(1.00, 0.00, -0.00, -1.00, 214.3, 238.3)">r</text><text xml:space="preserve" font-family="Arial-BoldMT,Arial" font-weight="bold" font-size="32.0" fill="#000000" transform="matrix(1.00, 0.00, -0.00, -1.00, 226.8, 238.3)">e</text><text xml:space="preserve" font-family="Arial-BoldMT,Arial" font-weight="bold" font-size="32.0" fill="#000000" transform="matrix(1.00, 0.00, -0.00, -1.00, 244.6, 238.3)">n</text><text xml:space="preserve" font-family="Arial-BoldMT,Arial" font-weight="bold" font-size="32.0" fill="#000000" transform="matrix(1.00, 0.00, -0.00, -1.00, 264.1, 238.3)"> </text><text xml:space="preserve" font-family="Arial-BoldMT,Arial" font-weight="bold" font-size="32.0" fill="#000000" transform="matrix(1.00, 0.00, -0.00, -1.00, 273.0, 238.3)">C</text><text xml:space="preserve" font-family="Arial-BoldMT,Arial" font-weight="bold" font-size="32.0" fill="#000000" transform="matrix(1.00, 0.00, -0.00, -1.00, 296.1, 238.3)">r</text><text xml:space="preserve" font-family="Arial-BoldMT,Arial" font-weight="bold" font-size="32.0" fill="#000000" transform="matrix(1.00, 0.00, -0.00, -1.00, 308.6, 238.3)">a</text><text xml:space="preserve" font-family="Arial-BoldMT,Arial" font-weight="bold" font-size="32.0" fill="#000000" transform="matrix(1.00, 0.00, -0.00, -1.00, 326.4, 238.3)">n</text><text xml:space="preserve" font-family="Arial-BoldMT,Arial" font-weight="bold" font-size="32.0" fill="#000000" transform="matrix(1.00, 0.00, -0.00, -1.00, 345.9, 238.3)">s</text><text xml:space="preserve" font-family="Arial-BoldMT,Arial" font-weight="bold" font-size="32.0" fill="#000000" transform="matrix(1.00, 0.00, -0.00, -1.00, 363.8, 238.3)">t</text><text xml:space="preserve" font-family="Arial-BoldMT,Arial" font-weight="bold" font-size="32.0" fill="#000000" transform="matrix(1.00, 0.00, -0.00, -1.00, 374.4, 238.3)">o</text><text xml:space="preserve" font-family="Arial-BoldMT,Arial" font-weight="bold" font-size="32.0" fill="#000000" transform="matrix(1.00, 0.00, -0.00, -1.00, 393.9, 238.3)">n</text><text xml:space="preserve" font-family="Arial-BoldMT,Arial" font-weight="bold" font-size="32.0" fill="#000000" transform="matrix(1.00, 0.00, -0.00, -1.00, 413.5, 238.3)"> </text><text xml:space="preserve" font-family="ArialMT,Arial" font-size="24.0" fill="#000000" transform="matrix(1.00, 0.00, -0.00, -1.00, 173.4, 208.4)">@</text><text xml:space="preserve" font-family="ArialMT,Arial" font-size="24.0" fill="#000000" transform="matrix(1.00, 0.00, -0.00, -1.00, 197.8, 208.4)">k</text><text xml:space="preserve" font-family="ArialMT,Arial" font-size="24.0" fill="#000000" transform="matrix(1.00, 0.00, -0.00, -1.00, 209.8, 208.4)">c</text><text xml:space="preserve" font-family="ArialMT,Arial" font-size="24.0" fill="#000000" transform="matrix(1.00, 0.00, -0.00, -1.00, 221.8, 208.4)">r</text><text xml:space="preserve" font-family="ArialMT,Arial" font-size="24.0" fill="#000000" transform="matrix(1.00, 0.00, -0.00, -1.00, 229.8, 208.4)">a</text><text xml:space="preserve" font-family="ArialMT,Arial" font-size="24.0" fill="#000000" transform="matrix(1.00, 0.00, -0.00, -1.00, 243.1, 208.4)">n</text><text xml:space="preserve" font-family="ArialMT,Arial" font-size="24.0" fill="#000000" transform="matrix(1.00, 0.00, -0.00, -1.00, 256.5, 208.4)">s</text><text xml:space="preserve" font-family="ArialMT,Arial" font-size="24.0" fill="#000000" transform="matrix(1.00, 0.00, -0.00, -1.00, 268.5, 208.4)">t</text><text xml:space="preserve" font-family="ArialMT,Arial" font-size="24.0" fill="#000000" transform="matrix(1.00, 0.00, -0.00, -1.00, 275.1, 208.4)">n</text><text xml:space="preserve" font-family="ArialMT,Arial" font-size="24.0" fill="#000000" transform="matrix(1.00, 0.00, -0.00, -1.00, 288.5, 208.4)"> </text><text xml:space="preserve" font-family="Palatino-Italic,Palatino" font-style="italic" font-size="22.0" fill="#000000" transform="matrix(1.00, 0.00, -0.00, -1.00, 173.4, 179.6)">g</text><text xml:space="preserve" font-family="Palatino-Italic,Palatino" font-style="italic" font-size="22.0" fill="#000000" transform="matrix(1.00, 0.00, -0.00, -1.00, 184.4, 179.6)">e</text><text xml:space="preserve" font-family="Palatino-Italic,Palatino" font-style="italic" font-size="22.0" fill="#000000" transform="matrix(1.00, 0.00, -0.00, -1.00, 193.0, 179.6)">e</text><text xml:space="preserve" font-family="Palatino-Italic,Palatino" font-style="italic" font-size="22.0" fill="#000000" transform="matrix(1.00, 0.00, -0.00, -1.00, 201.6, 179.6)">k</text><text xml:space="preserve" font-family="Palatino-Italic,Palatino" font-style="italic" font-size="22.0" fill="#000000" transform="matrix(1.00, 0.00, -0.00, -1.00, 211.3, 179.6)">y</text><text xml:space="preserve" font-family="Palatino-Italic,Palatino" font-style="italic" font-size="22.0" fill="#000000" transform="matrix(1.00, 0.00, -0.00, -1.00, 222.3, 179.6)"> </text><text xml:space="preserve" font-family="Palatino-Italic,Palatino" font-style="italic" font-size="22.0" fill="#000000" transform="matrix(1.00, 0.00, -0.00, -1.00, 227.8, 179.6)">e</text><text xml:space="preserve" font-family="Palatino-Italic,Palatino" font-style="italic" font-size="22.0" fill="#000000" transform="matrix(1.00, 0.00, -0.00, -1.00, 236.4, 179.6)">v</text><text xml:space="preserve" font-family="Palatino-Italic,Palatino" font-style="italic" font-size="22.0" fill="#000000" transform="matrix(1.00, 0.00, -0.00, -1.00, 247.4, 179.6)">o</text><text xml:space="preserve" font-family="Palatino-Italic,Palatino" font-style="italic" font-size="22.0" fill="#000000" transform="matrix(1.00, 0.00, -0.00, -1.00, 257.1, 179.6)">l</text><text xml:space="preserve" font-family="Palatino-Italic,Palatino" font-style="italic" font-size="22.0" fill="#000000" transform="matrix(1.00, 0.00, -0.00, -1.00, 263.2, 179.6)">u</text><text xml:space="preserve" font-family="Palatino-Italic,Palatino" font-style="italic" font-size="22.0" fill="#000000" transform="matrix(1.00, 0.00, -0.00, -1.00, 275.5, 179.6)">t</text><text xml:space="preserve" font-family="Palatino-Italic,Palatino" font-style="italic" font-size="22.0" fill="#000000" transform="matrix(1.00, 0.00, -0.00, -1.00, 282.8, 179.6)">i</text><text xml:space="preserve" font-family="Palatino-Italic,Palatino" font-style="italic" font-size="22.0" fill="#000000" transform="matrix(1.00, 0.00, -0.00, -1.00, 288.9, 179.6)">o</text><text xml:space="preserve" font-family="Palatino-Italic,Palatino" font-style="italic" font-size="22.0" fill="#000000" transform="matrix(1.00, 0.00, -0.00, -1.00, 298.7, 179.6)">n</text><text xml:space="preserve" font-family="Palatino-Italic,Palatino" font-style="italic" font-size="22.0" fill="#000000" transform="matrix(1.00, 0.00, -0.00, -1.00, 310.9, 179.6)">a</text><text xml:space="preserve" font-family="Palatino-Italic,Palatino" font-style="italic" font-size="22.0" fill="#000000" transform="matrix(1.00, 0.00, -0.00, -1.00, 320.7, 179.6)">r</text><text xml:space="preserve" font-family="Palatino-Italic,Palatino" font-style="italic" font-size="22.0" fill="#000000" transform="matrix(1.00, 0.00, -0.00, -1.00, 329.2, 179.6)">y</text><text xml:space="preserve" font-family="Palatino-Italic,Palatino" font-style="italic" font-size="22.0" fill="#000000" transform="matrix(1.00, 0.00, -0.00, -1.00, 340.2, 179.6)"> </text><text xml:space="preserve" font-family="Palatino-Italic,Palatino" font-style="italic" font-size="22.0" fill="#000000" transform="matrix(1.00, 0.00, -0.00, -1.00, 345.7, 179.6)">b</text><text xml:space="preserve" font-family="Palatino-Italic,Palatino" font-style="italic" font-size="22.0" fill="#000000" transform="matrix(1.00, 0.00, -0.00, -1.00, 355.9, 179.6)">i</text><text xml:space="preserve" font-family="Palatino-Italic,Palatino" font-style="italic" font-size="22.0" fill="#000000" transform="matrix(1.00, 0.00, -0.00, -1.00, 362.0, 179.6)">o</text><text xml:space="preserve" font-family="Palatino-Italic,Palatino" font-style="italic" font-size="22.0" fill="#000000" transform="matrix(1.00, 0.00, -0.00, -1.00, 371.8, 179.6)">l</text><text xml:space="preserve" font-family="Palatino-Italic,Palatino" font-style="italic" font-size="22.0" fill="#000000" transform="matrix(1.00, 0.00, -0.00, -1.00, 377.9, 179.6)">o</text><text xml:space="preserve" font-family="Palatino-Italic,Palatino" font-style="italic" font-size="22.0" fill="#000000" transform="matrix(1.00, 0.00, -0.00, -1.00, 387.7, 179.6)">g</text><text xml:space="preserve" font-family="Palatino-Italic,Palatino" font-style="italic" font-size="22.0" fill="#000000" transform="matrix(1.00, 0.00, -0.00, -1.00, 398.7, 179.6)">i</text><text xml:space="preserve" font-family="Palatino-Italic,Palatino" font-style="italic" font-size="22.0" fill="#000000" transform="matrix(1.00, 0.00, -0.00, -1.00, 404.8, 179.6)">s</text><text xml:space="preserve" font-family="Palatino-Italic,Palatino" font-style="italic" font-size="22.0" fill="#000000" transform="matrix(1.00, 0.00, -0.00, -1.00, 413.3, 179.6)">t</text><text xml:space="preserve" font-family="Palatino-Italic,Palatino" font-style="italic" font-size="22.0" fill="#000000" transform="matrix(1.00, 0.00, -0.00, -1.00, 420.7, 179.6)"> </text><text xml:space="preserve" font-family="Palatino-Italic,Palatino" font-style="italic" font-size="22.0" fill="#000000" transform="matrix(1.00, 0.00, -0.00, -1.00, 426.2, 179.6)">@</text><text xml:space="preserve" font-family="Palatino-Italic,Palatino" font-style="italic" font-size="22.0" fill="#000000" transform="matrix(1.00, 0.00, -0.00, -1.00, 442.6, 179.6)">D</text><text xml:space="preserve" font-family="Palatino-Italic,Palatino" font-style="italic" font-size="22.0" fill="#000000" transform="matrix(1.00, 0.00, -0.00, -1.00, 459.7, 179.6)">u</text><text xml:space="preserve" font-family="Palatino-Italic,Palatino" font-style="italic" font-size="22.0" fill="#000000" transform="matrix(1.00, 0.00, -0.00, -1.00, 472.0, 179.6)">k</text><text xml:space="preserve" font-family="Palatino-Italic,Palatino" font-style="italic" font-size="22.0" fill="#000000" transform="matrix(1.00, 0.00, -0.00, -1.00, 481.7, 179.6)">e</text><text xml:space="preserve" font-family="Palatino-Italic,Palatino" font-style="italic" font-size="22.0" fill="#000000" transform="matrix(1.00, 0.00, -0.00, -1.00, 490.3, 179.6)">U</text><text xml:space="preserve" font-family="Palatino-Italic,Palatino" font-style="italic" font-size="22.0" fill="#000000" transform="matrix(1.00, 0.00, -0.00, -1.00, 507.4, 179.6)"> </text><text xml:space="preserve" font-family="Palatino-Italic,Palatino" font-style="italic" font-size="22.0" fill="#000000" transform="matrix(1.00, 0.00, -0.00, -1.00, 512.9, 179.6)">a</text><text xml:space="preserve" font-family="Palatino-Italic,Palatino" font-style="italic" font-size="22.0" fill="#000000" transform="matrix(1.00, 0.00, -0.00, -1.00, 522.7, 179.6)">n</text><text xml:space="preserve" font-family="Palatino-Italic,Palatino" font-style="italic" font-size="22.0" fill="#000000" transform="matrix(1.00, 0.00, -0.00, -1.00, 534.9, 179.6)">d</text><text xml:space="preserve" font-family="Palatino-Italic,Palatino" font-style="italic" font-size="22.0" fill="#000000" transform="matrix(1.00, 0.00, -0.00, -1.00, 545.9, 179.6)"> </text><text xml:space="preserve" font-family="Palatino-Italic,Palatino" font-style="italic" font-size="22.0" fill="#000000" transform="matrix(1.00, 0.00, -0.00, -1.00, 173.4, 150.6)">@</text><text xml:space="preserve" font-family="Palatino-Italic,Palatino" font-style="italic" font-size="22.0" fill="#000000" transform="matrix(1.00, 0.00, -0.00, -1.00, 189.9, 150.6)">o</text><text xml:space="preserve" font-family="Palatino-Italic,Palatino" font-style="italic" font-size="22.0" fill="#000000" transform="matrix(1.00, 0.00, -0.00, -1.00, 199.6, 150.6)">p</text><text xml:space="preserve" font-family="Palatino-Italic,Palatino" font-style="italic" font-size="22.0" fill="#000000" transform="matrix(1.00, 0.00, -0.00, -1.00, 210.6, 150.6)">e</text><text xml:space="preserve" font-family="Palatino-Italic,Palatino" font-style="italic" font-size="22.0" fill="#000000" transform="matrix(1.00, 0.00, -0.00, -1.00, 219.2, 150.6)">n</text><text xml:space="preserve" font-family="Palatino-Italic,Palatino" font-style="italic" font-size="22.0" fill="#000000" transform="matrix(1.00, 0.00, -0.00, -1.00, 231.4, 150.6)">t</text><text xml:space="preserve" font-family="Palatino-Italic,Palatino" font-style="italic" font-size="22.0" fill="#000000" transform="matrix(1.00, 0.00, -0.00, -1.00, 238.8, 150.6)">r</text><text xml:space="preserve" font-family="Palatino-Italic,Palatino" font-style="italic" font-size="22.0" fill="#000000" transform="matrix(1.00, 0.00, -0.00, -1.00, 246.9, 150.6)">e</text><text xml:space="preserve" font-family="Palatino-Italic,Palatino" font-style="italic" font-size="22.0" fill="#000000" transform="matrix(1.00, 0.00, -0.00, -1.00, 255.5, 150.6)">e</text><text xml:space="preserve" font-family="Palatino-Italic,Palatino" font-style="italic" font-size="22.0" fill="#000000" transform="matrix(1.00, 0.00, -0.00, -1.00, 264.1, 150.6)">o</text><text xml:space="preserve" font-family="Palatino-Italic,Palatino" font-style="italic" font-size="22.0" fill="#000000" transform="matrix(1.00, 0.00, -0.00, -1.00, 273.8, 150.6)">ﬂ</text><text xml:space="preserve" font-family="Palatino-Italic,Palatino" font-style="italic" font-size="22.0" fill="#000000" transform="matrix(1.00, 0.00, -0.00, -1.00, 285.8, 150.6)">i</text><text xml:space="preserve" font-family="Palatino-Italic,Palatino" font-style="italic" font-size="22.0" fill="#000000" transform="matrix(1.00, 0.00, -0.00, -1.00, 291.9, 150.6)">f</text><text xml:space="preserve" font-family="Palatino-Italic,Palatino" font-style="italic" font-size="22.0" fill="#000000" transform="matrix(1.00, 0.00, -0.00, -1.00, 298.0, 150.6)">e</text></g></g><g><clipPath id="clip0x600000cbcec0"><path d="M 434.5 -19.5 L 1023.5 -19.5 L 1023.5 172.5 L 434.5 172.5 Z M 434.5 -19.5 "></path></clipPath><g clip-path="url(#clip0x600000cbcec0)"><image xlink:href="485510C954A4B2BB7E726344E4FF56F8.png" width="587.00" height="172.00" transform="matrix(1.00, 0.00, -0.00, -1.00, 435.5, 153.5)" opacity="0.68"></image><path d="M 449.5 42.5 L 450.0 156.5 C 450.0 164.8 456.2 171.0 464.5 171.0 L 993.5 171.0 C 1001.8 171.0 1009.0 164.8 1009.0 156.5 L 1009.0 42.5 C 1009.0 34.2 1001.8 27.0 993.5 27.0 L 464.5 27.0 C 456.2 27.0 449.5 34.2 449.5 42.5 Z M 449.5 42.5 " fill="#FFFFFF"></path></g></g><g><clipPath id="clip0x6080008b8d80"><path d="M 580.2 71.7 L 1005.3 71.7 L 1005.3 166.3 L 580.2 166.3 Z M 580.2 71.7 "></path></clipPath><g clip-path="url(#clip0x6080008b8d80)"><text xml:space="preserve" font-family="HelveticaNeue-Bold,Helvetica Neue" font-weight="bold" font-size="32.0" fill="#000000" transform="matrix(1.00, 0.00, -0.00, -1.00, 589.7, 125.7)">C</text><text xml:space="preserve" font-family="HelveticaNeue-Bold,Helvetica Neue" font-weight="bold" font-size="32.0" fill="#000000" transform="matrix(1.00, 0.00, -0.00, -1.00, 613.5, 125.7)">h</text><text xml:space="preserve" font-family="HelveticaNeue-Bold,Helvetica Neue" font-weight="bold" font-size="32.0" fill="#000000" transform="matrix(1.00, 0.00, -0.00, -1.00, 632.4, 125.7)">r</text><text xml:space="preserve" font-family="HelveticaNeue-Bold,Helvetica Neue" font-weight="bold" font-size="32.0" fill="#000000" transform="matrix(1.00, 0.00, -0.00, -1.00, 644.9, 125.7)">i</text><text xml:space="preserve" font-family="HelveticaNeue-Bold,Helvetica Neue" font-weight="bold" font-size="32.0" fill="#000000" transform="matrix(1.00, 0.00, -0.00, -1.00, 653.1, 125.7)">s</text><text xml:space="preserve" font-family="HelveticaNeue-Bold,Helvetica Neue" font-weight="bold" font-size="32.0" fill="#000000" transform="matrix(1.00, 0.00, -0.00, -1.00, 670.3, 125.7)"> </text><text xml:space="preserve" font-family="HelveticaNeue-Bold,Helvetica Neue" font-weight="bold" font-size="32.0" fill="#000000" transform="matrix(1.00, 0.00, -0.00, -1.00, 679.2, 125.7)">F</text><text xml:space="preserve" font-family="HelveticaNeue-Bold,Helvetica Neue" font-weight="bold" font-size="32.0" fill="#000000" transform="matrix(1.00, 0.00, -0.00, -1.00, 698.2, 125.7)">i</text><text xml:space="preserve" font-family="HelveticaNeue-Bold,Helvetica Neue" font-weight="bold" font-size="32.0" fill="#000000" transform="matrix(1.00, 0.00, -0.00, -1.00, 706.4, 125.7)">e</text><text xml:space="preserve" font-family="HelveticaNeue-Bold,Helvetica Neue" font-weight="bold" font-size="32.0" fill="#000000" transform="matrix(1.00, 0.00, -0.00, -1.00, 724.8, 125.7)">l</text><text xml:space="preserve" font-family="HelveticaNeue-Bold,Helvetica Neue" font-weight="bold" font-size="32.0" fill="#000000" transform="matrix(1.00, 0.00, -0.00, -1.00, 733.1, 125.7)">d</text><text xml:space="preserve" font-family="HelveticaNeue-Bold,Helvetica Neue" font-weight="bold" font-size="32.0" fill="#000000" transform="matrix(1.00, 0.00, -0.00, -1.00, 752.6, 125.7)">s</text><text xml:space="preserve" font-family="HelveticaNeue-Bold,Helvetica Neue" font-weight="bold" font-size="32.0" fill="#000000" transform="matrix(1.00, 0.00, -0.00, -1.00, 769.8, 125.7)"> </text><text xml:space="preserve" font-family="HelveticaNeue,Helvetica Neue" font-size="20.0" fill="#424242" transform="matrix(1.00, 0.00, -0.00, -1.00, 589.7, 98.6)">@</text><text xml:space="preserve" font-family="HelveticaNeue,Helvetica Neue" font-size="20.0" fill="#424242" transform="matrix(1.00, 0.00, -0.00, -1.00, 605.7, 98.6)">c</text><text xml:space="preserve" font-family="HelveticaNeue,Helvetica Neue" font-size="20.0" fill="#424242" transform="matrix(1.00, 0.00, -0.00, -1.00, 616.5, 98.6)">j</text><text xml:space="preserve" font-family="HelveticaNeue,Helvetica Neue" font-size="20.0" fill="#424242" transform="matrix(1.00, 0.00, -0.00, -1.00, 620.9, 98.6)">ﬁ</text><text xml:space="preserve" font-family="HelveticaNeue,Helvetica Neue" font-size="20.0" fill="#424242" transform="matrix(1.00, 0.00, -0.00, -1.00, 631.3, 98.6)">e</text><text xml:space="preserve" font-family="HelveticaNeue,Helvetica Neue" font-size="20.0" fill="#424242" transform="matrix(1.00, 0.00, -0.00, -1.00, 642.0, 98.6)">l</text><text xml:space="preserve" font-family="HelveticaNeue,Helvetica Neue" font-size="20.0" fill="#424242" transform="matrix(1.00, 0.00, -0.00, -1.00, 646.5, 98.6)">d</text><text xml:space="preserve" font-family="HelveticaNeue,Helvetica Neue" font-size="20.0" fill="#424242" transform="matrix(1.00, 0.00, -0.00, -1.00, 658.3, 98.6)">s</text><text xml:space="preserve" font-family="HelveticaNeue,Helvetica Neue" font-size="20.0" fill="#424242" transform="matrix(1.00, 0.00, -0.00, -1.00, 668.3, 98.6)">
</text><text xml:space="preserve" font-family="HelveticaNeue,Helvetica Neue" font-size="14.0" fill="#424242" transform="matrix(1.00, 0.00, -0.00, -1.00, 589.7, 81.2)">U</text><text xml:space="preserve" font-family="HelveticaNeue,Helvetica Neue" font-size="14.0" fill="#424242" transform="matrix(1.00, 0.00, -0.00, -1.00, 599.8, 81.2)">.</text><text xml:space="preserve" font-family="HelveticaNeue,Helvetica Neue" font-size="14.0" fill="#424242" transform="matrix(1.00, 0.00, -0.00, -1.00, 603.7, 81.2)"> </text><text xml:space="preserve" font-family="HelveticaNeue,Helvetica Neue" font-size="14.0" fill="#424242" transform="matrix(1.00, 0.00, -0.00, -1.00, 607.6, 81.2)">I</text><text xml:space="preserve" font-family="HelveticaNeue,Helvetica Neue" font-size="14.0" fill="#424242" transform="matrix(1.00, 0.00, -0.00, -1.00, 611.3, 81.2)">l</text><text xml:space="preserve" font-family="HelveticaNeue,Helvetica Neue" font-size="14.0" fill="#424242" transform="matrix(1.00, 0.00, -0.00, -1.00, 614.4, 81.2)">l</text><text xml:space="preserve" font-family="HelveticaNeue,Helvetica Neue" font-size="14.0" fill="#424242" transform="matrix(1.00, 0.00, -0.00, -1.00, 617.5, 81.2)">i</text><text xml:space="preserve" font-family="HelveticaNeue,Helvetica Neue" font-size="14.0" fill="#424242" transform="matrix(1.00, 0.00, -0.00, -1.00, 620.6, 81.2)">n</text><text xml:space="preserve" font-family="HelveticaNeue,Helvetica Neue" font-size="14.0" fill="#424242" transform="matrix(1.00, 0.00, -0.00, -1.00, 628.4, 81.2)">o</text><text xml:space="preserve" font-family="HelveticaNeue,Helvetica Neue" font-size="14.0" fill="#424242" transform="matrix(1.00, 0.00, -0.00, -1.00, 636.4, 81.2)">i</text><text xml:space="preserve" font-family="HelveticaNeue,Helvetica Neue" font-size="14.0" fill="#424242" transform="matrix(1.00, 0.00, -0.00, -1.00, 639.5, 81.2)">s</text><text xml:space="preserve" font-family="HelveticaNeue,Helvetica Neue" font-size="14.0" fill="#424242" transform="matrix(1.00, 0.00, -0.00, -1.00, 646.5, 81.2)"> </text><text xml:space="preserve" font-family="HelveticaNeue,Helvetica Neue" font-size="14.0" fill="#424242" transform="matrix(1.00, 0.00, -0.00, -1.00, 650.4, 81.2)">U</text><text xml:space="preserve" font-family="HelveticaNeue,Helvetica Neue" font-size="14.0" fill="#424242" transform="matrix(1.00, 0.00, -0.00, -1.00, 660.5, 81.2)">r</text><text xml:space="preserve" font-family="HelveticaNeue,Helvetica Neue" font-size="14.0" fill="#424242" transform="matrix(1.00, 0.00, -0.00, -1.00, 665.2, 81.2)">b</text><text xml:space="preserve" font-family="HelveticaNeue,Helvetica Neue" font-size="14.0" fill="#424242" transform="matrix(1.00, 0.00, -0.00, -1.00, 673.5, 81.2)">a</text><text xml:space="preserve" font-family="HelveticaNeue,Helvetica Neue" font-size="14.0" fill="#424242" transform="matrix(1.00, 0.00, -0.00, -1.00, 681.0, 81.2)">n</text><text xml:space="preserve" font-family="HelveticaNeue,Helvetica Neue" font-size="14.0" fill="#424242" transform="matrix(1.00, 0.00, -0.00, -1.00, 688.8, 81.2)">a</text><text xml:space="preserve" font-family="HelveticaNeue,Helvetica Neue" font-size="14.0" fill="#424242" transform="matrix(1.00, 0.00, -0.00, -1.00, 696.3, 81.2)">-</text><text xml:space="preserve" font-family="HelveticaNeue,Helvetica Neue" font-size="14.0" fill="#424242" transform="matrix(1.00, 0.00, -0.00, -1.00, 701.7, 81.2)">C</text><text xml:space="preserve" font-family="HelveticaNeue,Helvetica Neue" font-size="14.0" fill="#424242" transform="matrix(1.00, 0.00, -0.00, -1.00, 711.8, 81.2)">h</text><text xml:space="preserve" font-family="HelveticaNeue,Helvetica Neue" font-size="14.0" fill="#424242" transform="matrix(1.00, 0.00, -0.00, -1.00, 719.6, 81.2)">a</text><text xml:space="preserve" font-family="HelveticaNeue,Helvetica Neue" font-size="14.0" fill="#424242" transform="matrix(1.00, 0.00, -0.00, -1.00, 727.1, 81.2)">m</text><text xml:space="preserve" font-family="HelveticaNeue,Helvetica Neue" font-size="14.0" fill="#424242" transform="matrix(1.00, 0.00, -0.00, -1.00, 739.1, 81.2)">p</text><text xml:space="preserve" font-family="HelveticaNeue,Helvetica Neue" font-size="14.0" fill="#424242" transform="matrix(1.00, 0.00, -0.00, -1.00, 747.4, 81.2)">a</text><text xml:space="preserve" font-family="HelveticaNeue,Helvetica Neue" font-size="14.0" fill="#424242" transform="matrix(1.00, 0.00, -0.00, -1.00, 754.9, 81.2)">i</text><text xml:space="preserve" font-family="HelveticaNeue,Helvetica Neue" font-size="14.0" fill="#424242" transform="matrix(1.00, 0.00, -0.00, -1.00, 758.0, 81.2)">g</text><text xml:space="preserve" font-family="HelveticaNeue,Helvetica Neue" font-size="14.0" fill="#424242" transform="matrix(1.00, 0.00, -0.00, -1.00, 766.1, 81.2)">n</text></g></g><g><clipPath id="clip0x618000ca7740"><path d="M 461.9 37.9 C 459.7 40.1 459.7 158.3 461.9 160.5 C 464.1 162.7 582.3 162.7 584.5 160.5 C 586.7 158.3 586.7 40.1 584.5 37.9 C 582.3 35.7 464.1 35.7 461.9 37.9 "></path></clipPath><g clip-path="url(#clip0x618000ca7740)"><g><clipPath id="clip0x618000ca78c0"><path d="M 432.5 26.3 L 602.5 26.3 L 602.5 178.5 L 432.5 178.5 Z M 432.5 26.3 "></path></clipPath><g clip-path="url(#clip0x618000ca78c0)"><image xlink:href="1CF963C8235230A555E361062BE68CAF.png" width="134.00" height="120.00" transform="matrix(1.27, 0.00, -0.00, -1.27, 433.0, 178.0)"></image></g></g></g></g><text xml:space="preserve" font-family="AmericanTypewriter,American Typewriter" font-size="68.0" fill="#FFFFFF" transform="matrix(1.00, 0.00, -0.00, -1.00, 245.6, 707.0)">O</text><text xml:space="preserve" font-family="AmericanTypewriter,American Typewriter" font-size="68.0" fill="#FFFFFF" transform="matrix(1.00, 0.00, -0.00, -1.00, 290.1, 707.0)">B</text><text xml:space="preserve" font-family="AmericanTypewriter,American Typewriter" font-size="68.0" fill="#FFFFFF" transform="matrix(1.00, 0.00, -0.00, -1.00, 337.2, 707.0)">F</text><text xml:space="preserve" font-family="AmericanTypewriter,American Typewriter" font-size="68.0" fill="#FFFFFF" transform="matrix(1.00, 0.00, -0.00, -1.00, 379.3, 707.0)"> </text><text xml:space="preserve" font-family="AmericanTypewriter,American Typewriter" font-size="68.0" fill="#FFFFFF" transform="matrix(1.00, 0.00, -0.00, -1.00, 396.3, 707.0)">B</text><text xml:space="preserve" font-family="AmericanTypewriter,American Typewriter" font-size="68.0" fill="#FFFFFF" transform="matrix(1.00, 0.00, -0.00, -1.00, 443.3, 707.0)">o</text><text xml:space="preserve" font-family="AmericanTypewriter,American Typewriter" font-size="68.0" fill="#FFFFFF" transform="matrix(1.00, 0.00, -0.00, -1.00, 480.4, 707.0)">a</text><text xml:space="preserve" font-family="AmericanTypewriter,American Typewriter" font-size="68.0" fill="#FFFFFF" transform="matrix(1.00, 0.00, -0.00, -1.00, 518.8, 707.0)">r</text><text xml:space="preserve" font-family="AmericanTypewriter,American Typewriter" font-size="68.0" fill="#FFFFFF" transform="matrix(1.00, 0.00, -0.00, -1.00, 552.2, 707.0)">d</text><text xml:space="preserve" font-family="AmericanTypewriter,American Typewriter" font-size="68.0" fill="#FFFFFF" transform="matrix(1.00, 0.00, -0.00, -1.00, 593.0, 707.0)"> </text><text xml:space="preserve" font-family="AmericanTypewriter,American Typewriter" font-size="68.0" fill="#FFFFFF" transform="matrix(1.00, 0.00, -0.00, -1.00, 610.0, 707.0)">s</text><text xml:space="preserve" font-family="AmericanTypewriter,American Typewriter" font-size="68.0" fill="#FFFFFF" transform="matrix(1.00, 0.00, -0.00, -1.00, 643.4, 707.0)">i</text><text xml:space="preserve" font-family="AmericanTypewriter,American Typewriter" font-size="68.0" fill="#FFFFFF" transform="matrix(1.00, 0.00, -0.00, -1.00, 664.5, 707.0)">n</text><text xml:space="preserve" font-family="AmericanTypewriter,American Typewriter" font-size="68.0" fill="#FFFFFF" transform="matrix(1.00, 0.00, -0.00, -1.00, 707.8, 707.0)">c</text><text xml:space="preserve" font-family="AmericanTypewriter,American Typewriter" font-size="68.0" fill="#FFFFFF" transform="matrix(1.00, 0.00, -0.00, -1.00, 742.5, 707.0)">e</text><text xml:space="preserve" font-family="LucidaGrande,Lucida Grande" font-size="68.0" fill="#FFFFFF" transform="matrix(1.00, 0.00, -0.00, -1.00, 778.4, 707.0)"> </text><text xml:space="preserve" font-family="AmericanTypewriter,American Typewriter" font-size="68.0" fill="#FFFFFF" transform="matrix(1.00, 0.00, -0.00, -1.00, 351.2, 629.0)">M</text><text xml:space="preserve" font-family="AmericanTypewriter,American Typewriter" font-size="68.0" fill="#FFFFFF" transform="matrix(1.00, 0.00, -0.00, -1.00, 415.6, 629.0)">a</text><text xml:space="preserve" font-family="AmericanTypewriter,American Typewriter" font-size="68.0" fill="#FFFFFF" transform="matrix(1.00, 0.00, -0.00, -1.00, 452.5, 629.0)">y</text><text xml:space="preserve" font-family="AmericanTypewriter,American Typewriter" font-size="68.0" fill="#FFFFFF" transform="matrix(1.00, 0.00, -0.00, -1.00, 493.4, 629.0)"> </text><text xml:space="preserve" font-family="AmericanTypewriter,American Typewriter" font-size="68.0" fill="#FFFFFF" transform="matrix(1.00, 0.00, -0.00, -1.00, 510.4, 629.0)">2</text><text xml:space="preserve" font-family="AmericanTypewriter,American Typewriter" font-size="68.0" fill="#FFFFFF" transform="matrix(1.00, 0.00, -0.00, -1.00, 553.7, 629.0)">0</text><text xml:space="preserve" font-family="AmericanTypewriter,American Typewriter" font-size="68.0" fill="#FFFFFF" transform="matrix(1.00, 0.00, -0.00, -1.00, 590.7, 629.0)">1</text><text xml:space="preserve" font-family="AmericanTypewriter,American Typewriter" font-size="68.0" fill="#FFFFFF" transform="matrix(1.00, 0.00, -0.00, -1.00, 629.5, 629.0)">5</text><g><clipPath id="clip0x600000cb61a0"><path d="M 17.0 327.0 L 17.0 441.0 C 17.0 449.3 23.7 456.0 32.0 456.0 L 561.0 456.0 C 569.3 456.0 576.0 449.3 576.0 441.0 L 576.0 327.0 C 576.0 318.7 569.3 312.0 561.0 312.0 L 32.0 312.0 C 23.7 312.0 17.0 318.7 17.0 327.0 Z M 17.0 327.0 "></path></clipPath><g clip-path="url(#clip0x600000cb61a0)"><image xlink:href="F8475522DC7CB87F4DABDC8115938C88.png" width="846.00" height="162.00" transform="matrix(1.00, 0.00, -0.00, -1.00, 9.0, 465.0)"></image></g></g><image xlink:href="../../B5618476-FB91-478A-8845-98AFCE7622F9/assets/239001CBDE281A9B8CCFEA96022C1903.png" width="591.00" height="176.00" transform="matrix(1.00, 0.00, -0.00, -1.00, 450.5, 555.5)" opacity="0.75"></image><g><clipPath id="clip0x6100008bb660"><path d="M 449.5 427.5 L 450.0 541.5 C 450.0 549.8 456.2 557.0 464.5 557.0 L 993.5 557.0 C 1001.8 557.0 1009.0 549.8 1009.0 541.5 L 1009.0 427.5 C 1009.0 419.2 1001.8 413.0 993.5 413.0 L 464.5 413.0 C 456.2 413.0 449.5 419.2 449.5 427.5 Z M 449.5 427.5 "></path></clipPath><g clip-path="url(#clip0x6100008bb660)"><image xlink:href="A7F5762027E6A47796D046EE75123767.png" width="849.00" height="169.00" transform="matrix(1.00, 0.00, -0.00, -1.00, 438.0, 568.0)"></image></g></g><g><clipPath id="clip0x600000ab8d80"><path d="M 449.5 187.0 L 1041.5 187.0 L 1041.5 364.0 L 449.5 364.0 Z M 449.5 187.0 "></path></clipPath><g clip-path="url(#clip0x600000ab8d80)"><image xlink:href="../../B5618476-FB91-478A-8845-98AFCE7622F9/assets/239001CBDE281A9B8CCFEA96022C1903.png" width="591.00" height="176.00" transform="matrix(1.00, 0.00, -0.00, -1.00, 450.5, 363.0)" opacity="0.75"></image></g></g><g><clipPath id="clip0x600000caba60"><path d="M 449.5 235.0 L 450.0 349.0 C 450.0 357.3 456.2 364.0 464.5 364.0 L 993.5 364.0 C 1001.8 364.0 1009.0 357.3 1009.0 349.0 L 1009.0 235.0 C 1009.0 226.7 1001.8 220.0 993.5 220.0 L 464.5 220.0 C 456.2 220.0 449.5 226.7 449.5 235.0 Z M 449.5 235.0 "></path></clipPath><g clip-path="url(#clip0x600000caba60)"><g><clipPath id="clip0x600000eac180"><path d="M 449.5 187.0 L 1041.5 187.0 L 1041.5 364.0 L 449.5 364.0 Z M 449.5 187.0 "></path></clipPath><g clip-path="url(#clip0x600000eac180)"><image xlink:href="1B4183617333E0227E593CCDADC25959.png" width="846.00" height="164.00" transform="matrix(1.00, 0.00, -0.00, -1.00, 442.0, 372.0)"></image></g></g></g></g><g><clipPath id="clip0x600000aa6300"><path d="M 459.0 358.0 L 591.0 358.0 L 591.0 226.0 L 459.0 226.0 Z M 459.0 357.5 "></path></clipPath><g clip-path="url(#clip0x600000aa6300)"><g><clipPath id="clip0x600000ea7800"><path d="M 459.0 225.5 L 591.0 225.5 L 591.0 357.5 L 459.0 357.5 Z M 459.0 225.5 "></path></clipPath><g clip-path="url(#clip0x600000ea7800)"><image xlink:href="EEDC8A9551F7FA8F3E09F9755B603C6A.jpeg" width="400.00" height="400.00" transform="matrix(0.33, 0.00, -0.00, -0.33, 459.0, 358.0)"></image></g></g></g></g><g><clipPath id="clip0x618000ca7b60"><path d="M 459.0 225.5 L 591.0 225.5 L 591.0 357.5 L 459.0 357.5 Z M 459.0 225.5 "></path></clipPath><g clip-path="url(#clip0x618000ca7b60)"><image xlink:href="976BBD8899D23C2EC4601DA28D22B713.png" width="130.00" height="129.00" transform="matrix(1.00, 0.00, -0.00, 1.00, 460.0, 226.5)"></image></g></g></g></svg>