<?xml version="1.0" encoding="UTF-8" standalone="no"?><svg xmlns="http://www.w3.org/2000/svg" xmlns:xlink="http://www.w3.org/1999/xlink" clip-rule="evenodd" stroke-miterlimit="10" viewBox="0 0 1024 768"><desc>SVG generated by Keynote</desc><defs></defs><g transform="matrix(1.00, 0.00, -0.00, -1.00, 0.0, 768.0)"><g><clipPath id="clip0x600000eb4760"><path d="M 0.0 768.0 L 1024.0 768.0 L 1024.0 0.0 L 0.0 0.0 Z M 0.0 768.0 "></path></clipPath><g clip-path="url(#clip0x600000eb4760)"><image xlink:href="../../6CCEAA6E-8BB5-465D-8F4F-15040D485A15/assets/A26A31D53D3A482F596EEDFB4E479282.jpeg" width="1024.00" height="768.00" transform="matrix(1.00, 0.00, -0.00, -1.00, 0.0, 768.0)"></image></g></g><text xml:space="preserve" font-family="AmericanTypewriter,American Typewriter" font-size="70.0" fill="#FFFFFF" transform="matrix(1.00, 0.00, -0.00, -1.00, 244.1, 650.5)">C</text><text xml:space="preserve" font-family="AmericanTypewriter,American Typewriter" font-size="70.0" fill="#FFFFFF" transform="matrix(1.00, 0.00, -0.00, -1.00, 288.7, 650.5)">o</text><text xml:space="preserve" font-family="AmericanTypewriter,American Typewriter" font-size="70.0" fill="#FFFFFF" transform="matrix(1.00, 0.00, -0.00, -1.00, 326.9, 650.5)">n</text><text xml:space="preserve" font-family="AmericanTypewriter,American Typewriter" font-size="70.0" fill="#FFFFFF" transform="matrix(1.00, 0.00, -0.00, -1.00, 371.5, 650.5)">n</text><text xml:space="preserve" font-family="AmericanTypewriter,American Typewriter" font-size="70.0" fill="#FFFFFF" transform="matrix(1.00, 0.00, -0.00, -1.00, 416.1, 650.5)">e</text><text xml:space="preserve" font-family="AmericanTypewriter,American Typewriter" font-size="70.0" fill="#FFFFFF" transform="matrix(1.00, 0.00, -0.00, -1.00, 453.1, 650.5)">c</text><text xml:space="preserve" font-family="AmericanTypewriter,American Typewriter" font-size="70.0" fill="#FFFFFF" transform="matrix(1.00, 0.00, -0.00, -1.00, 488.8, 650.5)">t</text><text xml:space="preserve" font-family="AmericanTypewriter,American Typewriter" font-size="70.0" fill="#FFFFFF" transform="matrix(1.00, 0.00, -0.00, -1.00, 516.8, 650.5)"> </text><text xml:space="preserve" font-family="AmericanTypewriter,American Typewriter" font-size="70.0" fill="#FFFFFF" transform="matrix(1.00, 0.00, -0.00, -1.00, 534.3, 650.5)">w</text><text xml:space="preserve" font-family="AmericanTypewriter,American Typewriter" font-size="70.0" fill="#FFFFFF" transform="matrix(1.00, 0.00, -0.00, -1.00, 590.3, 650.5)">i</text><text xml:space="preserve" font-family="AmericanTypewriter,American Typewriter" font-size="70.0" fill="#FFFFFF" transform="matrix(1.00, 0.00, -0.00, -1.00, 612.0, 650.5)">t</text><text xml:space="preserve" font-family="AmericanTypewriter,American Typewriter" font-size="70.0" fill="#FFFFFF" transform="matrix(1.00, 0.00, -0.00, -1.00, 640.0, 650.5)">h</text><text xml:space="preserve" font-family="AmericanTypewriter,American Typewriter" font-size="70.0" fill="#FFFFFF" transform="matrix(1.00, 0.00, -0.00, -1.00, 684.6, 650.5)"> </text><text xml:space="preserve" font-family="AmericanTypewriter,American Typewriter" font-size="70.0" fill="#FFFFFF" transform="matrix(1.00, 0.00, -0.00, -1.00, 702.1, 650.5)">u</text><text xml:space="preserve" font-family="AmericanTypewriter,American Typewriter" font-size="70.0" fill="#FFFFFF" transform="matrix(1.00, 0.00, -0.00, -1.00, 745.5, 650.5)">s</text><text xml:space="preserve" font-family="AmericanTypewriter,American Typewriter" font-size="50.4" fill="#FFFFFF" transform="matrix(1.00, 0.00, -0.00, -1.00, 116.0, 472.6)">•</text><text xml:space="preserve" font-family="AmericanTypewriter,American Typewriter" font-size="42.0" fill="#FFFFFF" transform="matrix(1.00, 0.00, -0.00, -1.00, 160.2, 476.5)">W</text><text xml:space="preserve" font-family="AmericanTypewriter,American Typewriter" font-size="42.0" fill="#FFFFFF" transform="matrix(1.00, 0.00, -0.00, -1.00, 196.6, 476.5)">e</text><text xml:space="preserve" font-family="AmericanTypewriter,American Typewriter" font-size="42.0" fill="#FFFFFF" transform="matrix(1.00, 0.00, -0.00, -1.00, 218.8, 476.5)">b</text><text xml:space="preserve" font-family="AmericanTypewriter,American Typewriter" font-size="42.0" fill="#FFFFFF" transform="matrix(1.00, 0.00, -0.00, -1.00, 242.5, 476.5)">:</text><text xml:space="preserve" font-family="AmericanTypewriter,American Typewriter" font-size="42.0" fill="#FFFFFF" transform="matrix(1.00, 0.00, -0.00, -1.00, 254.0, 476.5)"> </text><text xml:space="preserve" font-family="AmericanTypewriter,American Typewriter" font-size="42.0" fill="#FFFFFF" transform="matrix(1.00, 0.00, -0.00, -1.00, 264.5, 476.5)">h</text><text xml:space="preserve" font-family="AmericanTypewriter,American Typewriter" font-size="42.0" fill="#FFFFFF" transform="matrix(1.00, 0.00, -0.00, -1.00, 291.2, 476.5)">t</text><text xml:space="preserve" font-family="AmericanTypewriter,American Typewriter" font-size="42.0" fill="#FFFFFF" transform="matrix(1.00, 0.00, -0.00, -1.00, 308.0, 476.5)">t</text><text xml:space="preserve" font-family="AmericanTypewriter,American Typewriter" font-size="42.0" fill="#FFFFFF" transform="matrix(1.00, 0.00, -0.00, -1.00, 324.8, 476.5)">p</text><text xml:space="preserve" font-family="AmericanTypewriter,American Typewriter" font-size="42.0" fill="#FFFFFF" transform="matrix(1.00, 0.00, -0.00, -1.00, 350.0, 476.5)">:</text><text xml:space="preserve" font-family="AmericanTypewriter,American Typewriter" font-size="42.0" fill="#FFFFFF" transform="matrix(1.00, 0.00, -0.00, -1.00, 361.5, 476.5)">/</text><text xml:space="preserve" font-family="AmericanTypewriter,American Typewriter" font-size="42.0" fill="#FFFFFF" transform="matrix(1.00, 0.00, -0.00, -1.00, 378.3, 476.5)">/</text><text xml:space="preserve" font-family="AmericanTypewriter,American Typewriter" font-size="42.0" fill="#FFFFFF" transform="matrix(1.00, 0.00, -0.00, -1.00, 395.1, 476.5)">w</text><text xml:space="preserve" font-family="AmericanTypewriter,American Typewriter" font-size="42.0" fill="#FFFFFF" transform="matrix(1.00, 0.00, -0.00, -1.00, 428.7, 476.5)">w</text><text xml:space="preserve" font-family="AmericanTypewriter,American Typewriter" font-size="42.0" fill="#FFFFFF" transform="matrix(1.00, 0.00, -0.00, -1.00, 462.4, 476.5)">w</text><text xml:space="preserve" font-family="AmericanTypewriter,American Typewriter" font-size="42.0" fill="#FFFFFF" transform="matrix(1.00, 0.00, -0.00, -1.00, 493.3, 476.5)">.</text><text xml:space="preserve" font-family="AmericanTypewriter,American Typewriter" font-size="42.0" fill="#FFFFFF" transform="matrix(1.00, 0.00, -0.00, -1.00, 504.8, 476.5)">o</text><text xml:space="preserve" font-family="AmericanTypewriter,American Typewriter" font-size="42.0" fill="#FFFFFF" transform="matrix(1.00, 0.00, -0.00, -1.00, 527.7, 476.5)">p</text><text xml:space="preserve" font-family="AmericanTypewriter,American Typewriter" font-size="42.0" fill="#FFFFFF" transform="matrix(1.00, 0.00, -0.00, -1.00, 552.9, 476.5)">e</text><text xml:space="preserve" font-family="AmericanTypewriter,American Typewriter" font-size="42.0" fill="#FFFFFF" transform="matrix(1.00, 0.00, -0.00, -1.00, 575.1, 476.5)">n</text><text xml:space="preserve" font-family="AmericanTypewriter,American Typewriter" font-size="42.0" fill="#FFFFFF" transform="matrix(1.00, 0.00, -0.00, -1.00, 601.8, 476.5)">-</text><text xml:space="preserve" font-family="AmericanTypewriter,American Typewriter" font-size="42.0" fill="#FFFFFF" transform="matrix(1.00, 0.00, -0.00, -1.00, 614.8, 476.5)">b</text><text xml:space="preserve" font-family="AmericanTypewriter,American Typewriter" font-size="42.0" fill="#FFFFFF" transform="matrix(1.00, 0.00, -0.00, -1.00, 638.5, 476.5)">i</text><text xml:space="preserve" font-family="AmericanTypewriter,American Typewriter" font-size="42.0" fill="#FFFFFF" transform="matrix(1.00, 0.00, -0.00, -1.00, 651.5, 476.5)">o</text><text xml:space="preserve" font-family="AmericanTypewriter,American Typewriter" font-size="42.0" fill="#FFFFFF" transform="matrix(1.00, 0.00, -0.00, -1.00, 674.5, 476.5)">.</text><text xml:space="preserve" font-family="AmericanTypewriter,American Typewriter" font-size="42.0" fill="#FFFFFF" transform="matrix(1.00, 0.00, -0.00, -1.00, 685.9, 476.5)">o</text><text xml:space="preserve" font-family="AmericanTypewriter,American Typewriter" font-size="42.0" fill="#FFFFFF" transform="matrix(1.00, 0.00, -0.00, -1.00, 708.9, 476.5)">r</text><text xml:space="preserve" font-family="AmericanTypewriter,American Typewriter" font-size="42.0" fill="#FFFFFF" transform="matrix(1.00, 0.00, -0.00, -1.00, 728.8, 476.5)">g</text><text xml:space="preserve" font-family="AmericanTypewriter,American Typewriter" font-size="42.0" fill="#FFFFFF" transform="matrix(1.00, 0.00, -0.00, -1.00, 751.7, 476.5)">/</text><text xml:space="preserve" font-family="AmericanTypewriter,American Typewriter" font-size="42.0" fill="#FFFFFF" transform="matrix(1.00, 0.00, -0.00, -1.00, 768.5, 476.5)"> </text><g><clipPath id="clip0x610000aa06c0"><path d="M 263.5 468.1 L 768.5 468.1 L 768.5 470.9 L 263.5 470.9 Z M 263.5 468.1 "></path></clipPath><g clip-path="url(#clip0x610000aa06c0)"><path d="M 179.5 99.5 L 683.5 99.5 " fill="none" stroke="#FFFFFF" stroke-width="0.84" transform="matrix(1.00, 0.00, 0.00, -1.00, 85.0, 569.0)"></path></g></g><text xml:space="preserve" font-family="AmericanTypewriter,American Typewriter" font-size="50.4" fill="#FFFFFF" transform="matrix(1.00, 0.00, -0.00, -1.00, 116.0, 391.6)">•</text><text xml:space="preserve" font-family="AmericanTypewriter,American Typewriter" font-size="42.0" fill="#FFFFFF" transform="matrix(1.00, 0.00, -0.00, -1.00, 160.2, 395.5)">T</text><text xml:space="preserve" font-family="AmericanTypewriter,American Typewriter" font-size="42.0" fill="#FFFFFF" transform="matrix(1.00, 0.00, -0.00, -1.00, 188.1, 395.5)">w</text><text xml:space="preserve" font-family="AmericanTypewriter,American Typewriter" font-size="42.0" fill="#FFFFFF" transform="matrix(1.00, 0.00, -0.00, -1.00, 221.7, 395.5)">i</text><text xml:space="preserve" font-family="AmericanTypewriter,American Typewriter" font-size="42.0" fill="#FFFFFF" transform="matrix(1.00, 0.00, -0.00, -1.00, 234.7, 395.5)">t</text><text xml:space="preserve" font-family="AmericanTypewriter,American Typewriter" font-size="42.0" fill="#FFFFFF" transform="matrix(1.00, 0.00, -0.00, -1.00, 251.5, 395.5)">t</text><text xml:space="preserve" font-family="AmericanTypewriter,American Typewriter" font-size="42.0" fill="#FFFFFF" transform="matrix(1.00, 0.00, -0.00, -1.00, 268.3, 395.5)">e</text><text xml:space="preserve" font-family="AmericanTypewriter,American Typewriter" font-size="42.0" fill="#FFFFFF" transform="matrix(1.00, 0.00, -0.00, -1.00, 290.5, 395.5)">r</text><text xml:space="preserve" font-family="AmericanTypewriter,American Typewriter" font-size="42.0" fill="#FFFFFF" transform="matrix(1.00, 0.00, -0.00, -1.00, 311.1, 395.5)">:</text><text xml:space="preserve" font-family="AmericanTypewriter,American Typewriter" font-size="42.0" fill="#FFFFFF" transform="matrix(1.00, 0.00, -0.00, -1.00, 322.6, 395.5)"> </text><text xml:space="preserve" font-family="AmericanTypewriter,American Typewriter" font-size="42.0" fill="#FFFFFF" transform="matrix(1.00, 0.00, -0.00, -1.00, 333.1, 395.5)">@</text><text xml:space="preserve" font-family="AmericanTypewriter,American Typewriter" font-size="42.0" fill="#FFFFFF" transform="matrix(1.00, 0.00, -0.00, -1.00, 362.1, 395.5)">o</text><text xml:space="preserve" font-family="AmericanTypewriter,American Typewriter" font-size="42.0" fill="#FFFFFF" transform="matrix(1.00, 0.00, -0.00, -1.00, 385.1, 395.5)">b</text><text xml:space="preserve" font-family="AmericanTypewriter,American Typewriter" font-size="42.0" fill="#FFFFFF" transform="matrix(1.00, 0.00, -0.00, -1.00, 408.8, 395.5)">f</text><text xml:space="preserve" font-family="AmericanTypewriter,American Typewriter" font-size="42.0" fill="#FFFFFF" transform="matrix(1.00, 0.00, -0.00, -1.00, 423.3, 395.5)">_</text><text xml:space="preserve" font-family="AmericanTypewriter,American Typewriter" font-size="42.0" fill="#FFFFFF" transform="matrix(1.00, 0.00, -0.00, -1.00, 444.3, 395.5)">n</text><text xml:space="preserve" font-family="AmericanTypewriter,American Typewriter" font-size="42.0" fill="#FFFFFF" transform="matrix(1.00, 0.00, -0.00, -1.00, 471.1, 395.5)">e</text><text xml:space="preserve" font-family="AmericanTypewriter,American Typewriter" font-size="42.0" fill="#FFFFFF" transform="matrix(1.00, 0.00, -0.00, -1.00, 493.2, 395.5)">w</text><text xml:space="preserve" font-family="AmericanTypewriter,American Typewriter" font-size="42.0" fill="#FFFFFF" transform="matrix(1.00, 0.00, -0.00, -1.00, 526.9, 395.5)">s</text><text xml:space="preserve" font-family="AmericanTypewriter,American Typewriter" font-size="42.0" fill="#FFFFFF" transform="matrix(1.00, 0.00, -0.00, -1.00, 547.5, 395.5)"> </text><text xml:space="preserve" font-family="AmericanTypewriter,American Typewriter" font-size="50.4" fill="#FFFFFF" transform="matrix(1.00, 0.00, -0.00, -1.00, 116.0, 310.6)">•</text><text xml:space="preserve" font-family="AmericanTypewriter,American Typewriter" font-size="42.0" fill="#FFFFFF" transform="matrix(1.00, 0.00, -0.00, -1.00, 160.2, 314.5)">G</text><text xml:space="preserve" font-family="AmericanTypewriter,American Typewriter" font-size="42.0" fill="#FFFFFF" transform="matrix(1.00, 0.00, -0.00, -1.00, 190.0, 314.5)">i</text><text xml:space="preserve" font-family="AmericanTypewriter,American Typewriter" font-size="42.0" fill="#FFFFFF" transform="matrix(1.00, 0.00, -0.00, -1.00, 203.1, 314.5)">t</text><text xml:space="preserve" font-family="AmericanTypewriter,American Typewriter" font-size="42.0" fill="#FFFFFF" transform="matrix(1.00, 0.00, -0.00, -1.00, 219.9, 314.5)">H</text><text xml:space="preserve" font-family="AmericanTypewriter,American Typewriter" font-size="42.0" fill="#FFFFFF" transform="matrix(1.00, 0.00, -0.00, -1.00, 252.7, 314.5)">u</text><text xml:space="preserve" font-family="AmericanTypewriter,American Typewriter" font-size="42.0" fill="#FFFFFF" transform="matrix(1.00, 0.00, -0.00, -1.00, 278.7, 314.5)">b</text><text xml:space="preserve" font-family="AmericanTypewriter,American Typewriter" font-size="42.0" fill="#FFFFFF" transform="matrix(1.00, 0.00, -0.00, -1.00, 302.4, 314.5)">:</text><text xml:space="preserve" font-family="AmericanTypewriter,American Typewriter" font-size="42.0" fill="#FFFFFF" transform="matrix(1.00, 0.00, -0.00, -1.00, 313.9, 314.5)"> </text><text xml:space="preserve" font-family="AmericanTypewriter,American Typewriter" font-size="42.0" fill="#FFFFFF" transform="matrix(1.00, 0.00, -0.00, -1.00, 324.4, 314.5)">h</text><text xml:space="preserve" font-family="AmericanTypewriter,American Typewriter" font-size="42.0" fill="#FFFFFF" transform="matrix(1.00, 0.00, -0.00, -1.00, 351.1, 314.5)">t</text><text xml:space="preserve" font-family="AmericanTypewriter,American Typewriter" font-size="42.0" fill="#FFFFFF" transform="matrix(1.00, 0.00, -0.00, -1.00, 367.9, 314.5)">t</text><text xml:space="preserve" font-family="AmericanTypewriter,American Typewriter" font-size="42.0" fill="#FFFFFF" transform="matrix(1.00, 0.00, -0.00, -1.00, 384.7, 314.5)">p</text><text xml:space="preserve" font-family="AmericanTypewriter,American Typewriter" font-size="42.0" fill="#FFFFFF" transform="matrix(1.00, 0.00, -0.00, -1.00, 409.9, 314.5)">:</text><text xml:space="preserve" font-family="AmericanTypewriter,American Typewriter" font-size="42.0" fill="#FFFFFF" transform="matrix(1.00, 0.00, -0.00, -1.00, 421.4, 314.5)">/</text><text xml:space="preserve" font-family="AmericanTypewriter,American Typewriter" font-size="42.0" fill="#FFFFFF" transform="matrix(1.00, 0.00, -0.00, -1.00, 438.2, 314.5)">/</text><text xml:space="preserve" font-family="AmericanTypewriter,American Typewriter" font-size="42.0" fill="#FFFFFF" transform="matrix(1.00, 0.00, -0.00, -1.00, 455.0, 314.5)">g</text><text xml:space="preserve" font-family="AmericanTypewriter,American Typewriter" font-size="42.0" fill="#FFFFFF" transform="matrix(1.00, 0.00, -0.00, -1.00, 477.9, 314.5)">i</text><text xml:space="preserve" font-family="AmericanTypewriter,American Typewriter" font-size="42.0" fill="#FFFFFF" transform="matrix(1.00, 0.00, -0.00, -1.00, 491.0, 314.5)">t</text><text xml:space="preserve" font-family="AmericanTypewriter,American Typewriter" font-size="42.0" fill="#FFFFFF" transform="matrix(1.00, 0.00, -0.00, -1.00, 507.8, 314.5)">h</text><text xml:space="preserve" font-family="AmericanTypewriter,American Typewriter" font-size="42.0" fill="#FFFFFF" transform="matrix(1.00, 0.00, -0.00, -1.00, 534.5, 314.5)">u</text><text xml:space="preserve" font-family="AmericanTypewriter,American Typewriter" font-size="42.0" fill="#FFFFFF" transform="matrix(1.00, 0.00, -0.00, -1.00, 560.5, 314.5)">b</text><text xml:space="preserve" font-family="AmericanTypewriter,American Typewriter" font-size="42.0" fill="#FFFFFF" transform="matrix(1.00, 0.00, -0.00, -1.00, 584.2, 314.5)">.</text><text xml:space="preserve" font-family="AmericanTypewriter,American Typewriter" font-size="42.0" fill="#FFFFFF" transform="matrix(1.00, 0.00, -0.00, -1.00, 595.7, 314.5)">c</text><text xml:space="preserve" font-family="AmericanTypewriter,American Typewriter" font-size="42.0" fill="#FFFFFF" transform="matrix(1.00, 0.00, -0.00, -1.00, 617.1, 314.5)">o</text><text xml:space="preserve" font-family="AmericanTypewriter,American Typewriter" font-size="42.0" fill="#FFFFFF" transform="matrix(1.00, 0.00, -0.00, -1.00, 640.0, 314.5)">m</text><text xml:space="preserve" font-family="AmericanTypewriter,American Typewriter" font-size="42.0" fill="#FFFFFF" transform="matrix(1.00, 0.00, -0.00, -1.00, 679.0, 314.5)">/</text><text xml:space="preserve" font-family="AmericanTypewriter,American Typewriter" font-size="42.0" fill="#FFFFFF" transform="matrix(1.00, 0.00, -0.00, -1.00, 695.8, 314.5)">o</text><text xml:space="preserve" font-family="AmericanTypewriter,American Typewriter" font-size="42.0" fill="#FFFFFF" transform="matrix(1.00, 0.00, -0.00, -1.00, 718.7, 314.5)">b</text><text xml:space="preserve" font-family="AmericanTypewriter,American Typewriter" font-size="42.0" fill="#FFFFFF" transform="matrix(1.00, 0.00, -0.00, -1.00, 742.4, 314.5)">f</text><text xml:space="preserve" font-family="AmericanTypewriter,American Typewriter" font-size="42.0" fill="#FFFFFF" transform="matrix(1.00, 0.00, -0.00, -1.00, 756.9, 314.5)">/</text><text xml:space="preserve" font-family="AmericanTypewriter,American Typewriter" font-size="42.0" fill="#FFFFFF" transform="matrix(1.00, 0.00, -0.00, -1.00, 773.7, 314.5)"> </text><g><clipPath id="clip0x6100008b9fe0"><path d="M 323.4 306.1 L 773.7 306.1 L 773.7 308.9 L 323.4 308.9 Z M 323.4 306.1 "></path></clipPath><g clip-path="url(#clip0x6100008b9fe0)"><path d="M 239.4 261.5 L 688.7 261.5 " fill="none" stroke="#FFFFFF" stroke-width="0.84" transform="matrix(1.00, 0.00, 0.00, -1.00, 85.0, 569.0)"></path></g></g><text xml:space="preserve" font-family="AmericanTypewriter,American Typewriter" font-size="50.4" fill="#FFFFFF" transform="matrix(1.00, 0.00, -0.00, -1.00, 116.0, 229.6)">•</text><text xml:space="preserve" font-family="AmericanTypewriter,American Typewriter" font-size="42.0" fill="#FFFFFF" transform="matrix(1.00, 0.00, -0.00, -1.00, 160.2, 233.5)">N</text><text xml:space="preserve" font-family="AmericanTypewriter,American Typewriter" font-size="42.0" fill="#FFFFFF" transform="matrix(1.00, 0.00, -0.00, -1.00, 191.0, 233.5)">e</text><text xml:space="preserve" font-family="AmericanTypewriter,American Typewriter" font-size="42.0" fill="#FFFFFF" transform="matrix(1.00, 0.00, -0.00, -1.00, 213.1, 233.5)">w</text><text xml:space="preserve" font-family="AmericanTypewriter,American Typewriter" font-size="42.0" fill="#FFFFFF" transform="matrix(1.00, 0.00, -0.00, -1.00, 246.8, 233.5)">s</text><text xml:space="preserve" font-family="AmericanTypewriter,American Typewriter" font-size="42.0" fill="#FFFFFF" transform="matrix(1.00, 0.00, -0.00, -1.00, 267.4, 233.5)"> </text><text xml:space="preserve" font-family="AmericanTypewriter,American Typewriter" font-size="42.0" fill="#FFFFFF" transform="matrix(1.00, 0.00, -0.00, -1.00, 277.9, 233.5)">b</text><text xml:space="preserve" font-family="AmericanTypewriter,American Typewriter" font-size="42.0" fill="#FFFFFF" transform="matrix(1.00, 0.00, -0.00, -1.00, 301.6, 233.5)">l</text><text xml:space="preserve" font-family="AmericanTypewriter,American Typewriter" font-size="42.0" fill="#FFFFFF" transform="matrix(1.00, 0.00, -0.00, -1.00, 314.6, 233.5)">o</text><text xml:space="preserve" font-family="AmericanTypewriter,American Typewriter" font-size="42.0" fill="#FFFFFF" transform="matrix(1.00, 0.00, -0.00, -1.00, 337.5, 233.5)">g</text><text xml:space="preserve" font-family="AmericanTypewriter,American Typewriter" font-size="42.0" fill="#FFFFFF" transform="matrix(1.00, 0.00, -0.00, -1.00, 360.5, 233.5)">:</text><text xml:space="preserve" font-family="AmericanTypewriter,American Typewriter" font-size="42.0" fill="#FFFFFF" transform="matrix(1.00, 0.00, -0.00, -1.00, 371.9, 233.5)"> </text><text xml:space="preserve" font-family="AmericanTypewriter,American Typewriter" font-size="42.0" fill="#FFFFFF" transform="matrix(1.00, 0.00, -0.00, -1.00, 382.4, 233.5)">h</text><text xml:space="preserve" font-family="AmericanTypewriter,American Typewriter" font-size="42.0" fill="#FFFFFF" transform="matrix(1.00, 0.00, -0.00, -1.00, 409.2, 233.5)">t</text><text xml:space="preserve" font-family="AmericanTypewriter,American Typewriter" font-size="42.0" fill="#FFFFFF" transform="matrix(1.00, 0.00, -0.00, -1.00, 426.0, 233.5)">t</text><text xml:space="preserve" font-family="AmericanTypewriter,American Typewriter" font-size="42.0" fill="#FFFFFF" transform="matrix(1.00, 0.00, -0.00, -1.00, 442.8, 233.5)">p</text><text xml:space="preserve" font-family="AmericanTypewriter,American Typewriter" font-size="42.0" fill="#FFFFFF" transform="matrix(1.00, 0.00, -0.00, -1.00, 468.0, 233.5)">:</text><text xml:space="preserve" font-family="AmericanTypewriter,American Typewriter" font-size="42.0" fill="#FFFFFF" transform="matrix(1.00, 0.00, -0.00, -1.00, 479.5, 233.5)">/</text><text xml:space="preserve" font-family="AmericanTypewriter,American Typewriter" font-size="42.0" fill="#FFFFFF" transform="matrix(1.00, 0.00, -0.00, -1.00, 496.3, 233.5)">/</text><text xml:space="preserve" font-family="AmericanTypewriter,American Typewriter" font-size="42.0" fill="#FFFFFF" transform="matrix(1.00, 0.00, -0.00, -1.00, 513.1, 233.5)">n</text><text xml:space="preserve" font-family="AmericanTypewriter,American Typewriter" font-size="42.0" fill="#FFFFFF" transform="matrix(1.00, 0.00, -0.00, -1.00, 539.8, 233.5)">e</text><text xml:space="preserve" font-family="AmericanTypewriter,American Typewriter" font-size="42.0" fill="#FFFFFF" transform="matrix(1.00, 0.00, -0.00, -1.00, 562.0, 233.5)">w</text><text xml:space="preserve" font-family="AmericanTypewriter,American Typewriter" font-size="42.0" fill="#FFFFFF" transform="matrix(1.00, 0.00, -0.00, -1.00, 595.6, 233.5)">s</text><text xml:space="preserve" font-family="AmericanTypewriter,American Typewriter" font-size="42.0" fill="#FFFFFF" transform="matrix(1.00, 0.00, -0.00, -1.00, 616.3, 233.5)">.</text><text xml:space="preserve" font-family="AmericanTypewriter,American Typewriter" font-size="42.0" fill="#FFFFFF" transform="matrix(1.00, 0.00, -0.00, -1.00, 627.8, 233.5)">o</text><text xml:space="preserve" font-family="AmericanTypewriter,American Typewriter" font-size="42.0" fill="#FFFFFF" transform="matrix(1.00, 0.00, -0.00, -1.00, 650.7, 233.5)">p</text><text xml:space="preserve" font-family="AmericanTypewriter,American Typewriter" font-size="42.0" fill="#FFFFFF" transform="matrix(1.00, 0.00, -0.00, -1.00, 675.9, 233.5)">e</text><text xml:space="preserve" font-family="AmericanTypewriter,American Typewriter" font-size="42.0" fill="#FFFFFF" transform="matrix(1.00, 0.00, -0.00, -1.00, 698.1, 233.5)">n</text><text xml:space="preserve" font-family="AmericanTypewriter,American Typewriter" font-size="42.0" fill="#FFFFFF" transform="matrix(1.00, 0.00, -0.00, -1.00, 724.8, 233.5)">-</text><text xml:space="preserve" font-family="AmericanTypewriter,American Typewriter" font-size="42.0" fill="#FFFFFF" transform="matrix(1.00, 0.00, -0.00, -1.00, 737.8, 233.5)">b</text><text xml:space="preserve" font-family="AmericanTypewriter,American Typewriter" font-size="42.0" fill="#FFFFFF" transform="matrix(1.00, 0.00, -0.00, -1.00, 761.5, 233.5)">i</text><text xml:space="preserve" font-family="AmericanTypewriter,American Typewriter" font-size="42.0" fill="#FFFFFF" transform="matrix(1.00, 0.00, -0.00, -1.00, 774.5, 233.5)">o</text><text xml:space="preserve" font-family="AmericanTypewriter,American Typewriter" font-size="42.0" fill="#FFFFFF" transform="matrix(1.00, 0.00, -0.00, -1.00, 797.4, 233.5)">.</text><text xml:space="preserve" font-family="AmericanTypewriter,American Typewriter" font-size="42.0" fill="#FFFFFF" transform="matrix(1.00, 0.00, -0.00, -1.00, 808.9, 233.5)">o</text><text xml:space="preserve" font-family="AmericanTypewriter,American Typewriter" font-size="42.0" fill="#FFFFFF" transform="matrix(1.00, 0.00, -0.00, -1.00, 831.8, 233.5)">r</text><text xml:space="preserve" font-family="AmericanTypewriter,American Typewriter" font-size="42.0" fill="#FFFFFF" transform="matrix(1.00, 0.00, -0.00, -1.00, 851.8, 233.5)">g</text><text xml:space="preserve" font-family="AmericanTypewriter,American Typewriter" font-size="42.0" fill="#FFFFFF" transform="matrix(1.00, 0.00, -0.00, -1.00, 874.7, 233.5)">/</text><text xml:space="preserve" font-family="AmericanTypewriter,American Typewriter" font-size="42.0" fill="#FFFFFF" transform="matrix(1.00, 0.00, -0.00, -1.00, 891.5, 233.5)"> </text><g><clipPath id="clip0x6100008ae460"><path d="M 381.4 225.1 L 874.7 225.1 L 874.7 227.9 L 381.4 227.9 Z M 381.4 225.1 "></path></clipPath><g clip-path="url(#clip0x6100008ae460)"><path d="M 297.4 342.5 L 789.7 342.5 " fill="none" stroke="#FFFFFF" stroke-width="0.84" transform="matrix(1.00, 0.00, 0.00, -1.00, 85.0, 569.0)"></path></g></g><text xml:space="preserve" font-family="AmericanTypewriter,American Typewriter" font-size="50.4" fill="#FFFFFF" transform="matrix(1.00, 0.00, -0.00, -1.00, 116.0, 148.6)">•</text><text xml:space="preserve" font-family="AmericanTypewriter,American Typewriter" font-size="42.0" fill="#FFFFFF" transform="matrix(1.00, 0.00, -0.00, -1.00, 160.2, 152.5)">J</text><text xml:space="preserve" font-family="AmericanTypewriter,American Typewriter" font-size="42.0" fill="#FFFFFF" transform="matrix(1.00, 0.00, -0.00, -1.00, 186.2, 152.5)">o</text><text xml:space="preserve" font-family="AmericanTypewriter,American Typewriter" font-size="42.0" fill="#FFFFFF" transform="matrix(1.00, 0.00, -0.00, -1.00, 209.1, 152.5)">i</text><text xml:space="preserve" font-family="AmericanTypewriter,American Typewriter" font-size="42.0" fill="#FFFFFF" transform="matrix(1.00, 0.00, -0.00, -1.00, 222.2, 152.5)">n</text><text xml:space="preserve" font-family="AmericanTypewriter,American Typewriter" font-size="42.0" fill="#FFFFFF" transform="matrix(1.00, 0.00, -0.00, -1.00, 248.9, 152.5)"> </text><text xml:space="preserve" font-family="AmericanTypewriter,American Typewriter" font-size="42.0" fill="#FFFFFF" transform="matrix(1.00, 0.00, -0.00, -1.00, 259.4, 152.5)">u</text><text xml:space="preserve" font-family="AmericanTypewriter,American Typewriter" font-size="42.0" fill="#FFFFFF" transform="matrix(1.00, 0.00, -0.00, -1.00, 285.4, 152.5)">s</text><text xml:space="preserve" font-family="AmericanTypewriter,American Typewriter" font-size="42.0" fill="#FFFFFF" transform="matrix(1.00, 0.00, -0.00, -1.00, 306.1, 152.5)"> </text><text xml:space="preserve" font-family="AmericanTypewriter,American Typewriter" font-size="42.0" fill="#FFFFFF" transform="matrix(1.00, 0.00, -0.00, -1.00, 316.6, 152.5)">a</text><text xml:space="preserve" font-family="AmericanTypewriter,American Typewriter" font-size="42.0" fill="#FFFFFF" transform="matrix(1.00, 0.00, -0.00, -1.00, 340.3, 152.5)">s</text><text xml:space="preserve" font-family="AmericanTypewriter,American Typewriter" font-size="42.0" fill="#FFFFFF" transform="matrix(1.00, 0.00, -0.00, -1.00, 360.9, 152.5)"> </text><text xml:space="preserve" font-family="AmericanTypewriter,American Typewriter" font-size="42.0" fill="#FFFFFF" transform="matrix(1.00, 0.00, -0.00, -1.00, 371.4, 152.5)">a</text><text xml:space="preserve" font-family="AmericanTypewriter,American Typewriter" font-size="42.0" fill="#FFFFFF" transform="matrix(1.00, 0.00, -0.00, -1.00, 395.1, 152.5)"> </text><text xml:space="preserve" font-family="AmericanTypewriter,American Typewriter" font-size="42.0" fill="#FFFFFF" transform="matrix(1.00, 0.00, -0.00, -1.00, 405.6, 152.5)">m</text><text xml:space="preserve" font-family="AmericanTypewriter,American Typewriter" font-size="42.0" fill="#FFFFFF" transform="matrix(1.00, 0.00, -0.00, -1.00, 444.6, 152.5)">e</text><text xml:space="preserve" font-family="AmericanTypewriter,American Typewriter" font-size="42.0" fill="#FFFFFF" transform="matrix(1.00, 0.00, -0.00, -1.00, 466.8, 152.5)">m</text><text xml:space="preserve" font-family="AmericanTypewriter,American Typewriter" font-size="42.0" fill="#FFFFFF" transform="matrix(1.00, 0.00, -0.00, -1.00, 505.7, 152.5)">b</text><text xml:space="preserve" font-family="AmericanTypewriter,American Typewriter" font-size="42.0" fill="#FFFFFF" transform="matrix(1.00, 0.00, -0.00, -1.00, 529.4, 152.5)">e</text><text xml:space="preserve" font-family="AmericanTypewriter,American Typewriter" font-size="42.0" fill="#FFFFFF" transform="matrix(1.00, 0.00, -0.00, -1.00, 551.6, 152.5)">r</text><text xml:space="preserve" font-family="AmericanTypewriter,American Typewriter" font-size="42.0" fill="#FFFFFF" transform="matrix(1.00, 0.00, -0.00, -1.00, 568.4, 152.5)">.</text></g></svg>