<?xml version="1.0" encoding="UTF-8" standalone="no"?>
<!-- Created with Inkscape (http://www.inkscape.org/) -->

<svg
   xmlns:dc="http://purl.org/dc/elements/1.1/"
   xmlns:cc="http://creativecommons.org/ns#"
   xmlns:rdf="http://www.w3.org/1999/02/22-rdf-syntax-ns#"
   xmlns:svg="http://www.w3.org/2000/svg"
   xmlns="http://www.w3.org/2000/svg"
   xmlns:sodipodi="http://sodipodi.sourceforge.net/DTD/sodipodi-0.dtd"
   xmlns:inkscape="http://www.inkscape.org/namespaces/inkscape"
   width="720mm"
   height="720mm"
   viewBox="0 0 720 720"
   version="1.1"
   id="svg8"
   inkscape:version="0.92.2 5c3e80d, 2017-08-06"
   sodipodi:docname="obf_logo_icon-double.svg">
  <defs
     id="defs2">
    <inkscape:path-effect
       effect="bspline"
       id="path-effect826"
       is_visible="true"
       weight="33.333333"
       steps="2"
       helper_size="0"
       apply_no_weight="true"
       apply_with_weight="true"
       only_selected="false" />
    <inkscape:path-effect
       effect="bspline"
       id="path-effect827"
       is_visible="true"
       weight="33.333333"
       steps="2"
       helper_size="0"
       apply_no_weight="true"
       apply_with_weight="true"
       only_selected="false" />
    <inkscape:path-effect
       effect="bspline"
       id="path-effect828"
       is_visible="true"
       weight="33.333333"
       steps="2"
       helper_size="0"
       apply_no_weight="true"
       apply_with_weight="true"
       only_selected="false" />
    <inkscape:path-effect
       only_selected="false"
       apply_with_weight="true"
       apply_no_weight="true"
       helper_size="0"
       steps="2"
       weight="33.333333"
       is_visible="true"
       id="path-effect4596"
       effect="bspline" />
    <inkscape:path-effect
       effect="bspline"
       id="path-effect838"
       is_visible="true"
       weight="33.333333"
       steps="2"
       helper_size="0"
       apply_no_weight="true"
       apply_with_weight="true"
       only_selected="false" />
    <inkscape:path-effect
       effect="bspline"
       id="path-effect822"
       is_visible="true"
       weight="33.333333"
       steps="2"
       helper_size="0"
       apply_no_weight="true"
       apply_with_weight="true"
       only_selected="false" />
  </defs>
  <sodipodi:namedview
     id="base"
     pagecolor="#ffffff"
     bordercolor="#666666"
     borderopacity="1.0"
     inkscape:pageopacity="0.0"
     inkscape:pageshadow="2"
     inkscape:zoom="0.1767767"
     inkscape:cx="1293.4917"
     inkscape:cy="1402.6081"
     inkscape:document-units="mm"
     inkscape:current-layer="layer1"
     showgrid="false"
     inkscape:window-width="951"
     inkscape:window-height="706"
     inkscape:window-x="35"
     inkscape:window-y="1"
     inkscape:window-maximized="0" />
  <metadata
     id="metadata5">
    <rdf:RDF>
      <cc:Work
         rdf:about="">
        <dc:format>image/svg+xml</dc:format>
        <dc:type
           rdf:resource="http://purl.org/dc/dcmitype/StillImage" />
        <dc:title />
      </cc:Work>
    </rdf:RDF>
  </metadata>
  <g
     inkscape:label="Layer 1"
     inkscape:groupmode="layer"
     id="layer1"
     transform="translate(0,423)">
    <circle
       style="opacity:1;fill:#66bd7e;fill-opacity:1;stroke:none;stroke-width:10.06992912;stroke-miterlimit:4;stroke-dasharray:none;stroke-opacity:1"
       id="path815"
       cx="360"
       cy="-63"
       r="340" />
    <path
       sodipodi:nodetypes="ccccccccccccccccc"
       inkscape:original-d="m 80,-153 c 36.66653,3.33303 72.68033,6.60701 110,10 30.53476,-30.53476 60.00021,-60.00021 90,-90 -3.33308,-36.667 -6.63024,-72.93577 -10,-110 60.65125,-2.6e-4 120.00024,-2.6e-4 180,0 -3.33307,36.66642 -6.6664,73.33307 -10,110 30.00026,29.99973 59.57342,59.57289 90,90 37.18863,-3.38103 73.33325,-6.6669 110,-10 2.6e-4,60.000304 2.6e-4,119.999069 0,180 -36.66681,-3.333635 -73.33322,-6.666945 -110,-10 -29.99961,29.99961 -59.99978,59.999782 -90,90 3.33359,36.66635 6.66687,73.33235 10,110 -60.00092,-2.6e-4 -119.99957,-2.6e-4 -180,0 3.33361,-36.66703 6.66693,-73.33363 10,-110 -29.99971,-30.000239 -59.99998,-60.000506 -90,-90 -36.66611,3.333042 -73.33297,6.666393 -110,10 2.65e-4,-60.000427 2.65e-4,-120.000923 0,-180 z"
       inkscape:path-effect="#path-effect4596"
       inkscape:connector-curvature="0"
       id="path4594"
       d="m 98.333252,-121.3338 c 18.333248,-28.33288 54.347048,-25.0589 88.274278,-38.62993 33.92723,-13.57103 63.39268,-43.03648 76.72589,-76.36986 13.33322,-33.33338 10.03606,-69.60215 38.67694,-88.13428 C 330.65125,-343 390.00024,-343 418.33347,-324.6668 c 28.33322,18.3332 24.99989,54.99985 38.33321,88.33332 13.33332,33.33348 42.90647,62.90663 76.71422,76.42966 33.80775,13.52303 69.95237,10.23716 88.28574,38.57064 C 640,-92.999696 640,-33.000931 621.66658,-4.6671399 603.33316,23.666651 566.66675,20.333341 533.33357,33.666476 500.00039,46.99961 470.00022,76.999781 456.66676,110.33308 c -13.33345,33.3333 -10.00018,69.9993 -38.33393,88.33311 C 389.99908,217 330.00043,217 301.6669,198.66647 273.33337,180.33295 276.6667,143.66635 263.33336,110.33319 250.00003,77.000025 219.99976,46.999757 186.66683,33.666519 153.33391,20.333281 116.66705,23.666632 98.333526,-4.6668977 80,-33.000427 80,-93.000923 98.333252,-121.3338 Z"
       style="fill:none;fill-rule:evenodd;stroke:#ffffff;stroke-width:10;stroke-linecap:butt;stroke-linejoin:miter;stroke-miterlimit:4;stroke-dasharray:none;stroke-opacity:1" />
    <path
       style="opacity:1;fill:#ffffff;fill-opacity:1;stroke:none;stroke-width:102.74299622;stroke-linejoin:round;stroke-miterlimit:4;stroke-dasharray:none;stroke-opacity:1"
       d="M 1238.0508 1209.4492 C 1148.9203 1209.4492 1077.166 1281.2035 1077.166 1370.334 L 1077.166 1615.4922 C 1077.166 1704.6226 1148.9203 1776.3789 1238.0508 1776.3789 L 1483.209 1776.3789 C 1572.3394 1776.3789 1644.0938 1704.6226 1644.0938 1615.4922 L 1644.0938 1370.334 C 1644.0938 1281.2035 1572.3394 1209.4492 1483.209 1209.4492 L 1238.0508 1209.4492 z M 1360.6309 1341.7324 A 94.488188 94.488188 0 0 1 1455.1172 1436.2207 A 94.488188 94.488188 0 0 1 1407.873 1517.916 L 1407.873 1608.9004 C 1407.873 1638.8675 1386.8041 1662.9922 1360.6309 1662.9922 C 1334.4576 1662.9922 1313.3867 1638.8675 1313.3867 1608.9004 L 1313.3867 1517.9512 A 94.488188 94.488188 0 0 1 1266.1426 1436.2207 A 94.488188 94.488188 0 0 1 1360.6309 1341.7324 z "
       id="rect824"
       transform="matrix(0.26458333,0,0,0.26458333,0,-423)" />
    <path
       style="fill:none;fill-rule:evenodd;stroke:#ffffff;stroke-width:21.7141819;stroke-linecap:round;stroke-linejoin:round;stroke-miterlimit:4;stroke-dasharray:none;stroke-opacity:1"
       d="m 326.4493,-82.453789 c -9.96174,-25.778071 -19.9237,-51.556711 -21.08125,-65.757261 -1.15754,-14.20055 6.48854,-16.82494 14.02318,-19.41104 7.53464,-2.58611 14.95804,-5.13399 22.50923,-7.72575 7.55119,-2.59176 15.23027,-5.22743 22.09812,-7.5846 6.86785,-2.35717 12.92449,-4.43585 18.4834,0.14038 5.55891,4.57624 10.61972,15.80663 15.68084,27.03774"
       id="path826"
       inkscape:connector-curvature="0"
       inkscape:path-effect="#path-effect828"
       inkscape:original-d="m 326.4493,-82.453789 c -9.96147,-25.778181 -19.92343,-51.556821 -29.88491,-77.333401 7.64603,-2.62466 15.29218,-5.24887 22.93827,-7.87319 7.4232,-2.54783 14.84653,-5.09594 22.26957,-7.64343 7.67934,-2.63603 15.35847,-5.27154 23.03745,-7.90708 6.05673,-2.07877 12.1133,-4.15766 18.17006,-6.2361 5.06147,11.23103 10.12227,22.46142 15.18308,33.69267"
       sodipodi:nodetypes="ccccccc" />
    <path
       style="fill:none;fill-rule:evenodd;stroke:#ffffff;stroke-width:30;stroke-linecap:butt;stroke-linejoin:miter;stroke-miterlimit:4;stroke-dasharray:none;stroke-opacity:1"
       d="m 216.2306,-289.27095 c 32.99794,-7.07081 56.14849,20.70985 89.73483,35.10385 33.58634,14.39401 75.25678,14.39401 108.25505,0.25176 32.99827,-14.14226 56.31271,-42.11959 89.66907,-34.97162 33.35636,7.14797 75.32243,49.11404 82.39352,82.11219 7.07108,32.99814 -21.21317,56.56836 -35.35542,89.56676 -14.14225,32.998407 -14.14225,74.821171 0.20122,108.2890864 14.34346,33.4679156 42.22503,56.7025526 35.15388,89.7009976 -7.07115,32.998446 -49.49669,75.423976 -82.49539,82.495306 -32.9987,7.07133 -56.56876,-21.21274 -89.56683,-35.35491 -32.99807,-14.14217 -75.42471,-14.14217 -108.42309,-1.5e-4 -32.99838,14.14203 -56.56817,42.42578 -89.56712,35.35476 -32.99895,-7.07102 -75.42441,-49.49648 -82.49548,-82.495066 -7.07107,-32.99859 21.21315,-56.568777 35.35516,-89.5669718 14.14201,-32.9981952 14.14201,-75.4249822 1e-4,-108.4229422 -14.14191,-32.99796 -42.42633,-56.56831 -35.35526,-89.5669 7.07107,-32.99859 49.49782,-75.42534 82.49576,-82.49615 z"
       id="path824"
       inkscape:connector-curvature="0"
       inkscape:path-effect="#path-effect826"
       inkscape:original-d="m 225.65842,-324.6259 c 23.57034,28.28396 46.72089,56.06461 70.71068,84.85281 43.18267,0 84.85311,0 127.27922,0 23.57064,-28.28433 46.88509,-56.26166 70.71068,-84.85281 42.88709,42.88672 84.85316,84.8528 127.27922,127.27922 -28.28391,23.57024 -56.56817,47.14045 -84.85282,70.71068 3.8e-4,42.426397 3.8e-4,84.249161 0,127.27921785 C 565.47249,24.548801 593.35405,47.783446 621.63822,71.353896 579.21178,113.7807 536.78625,156.20624 494.359,198.63312 470.78888,170.34853 447.21882,142.06446 423.64832,113.7803 c -42.42586,0 -84.8525,0 -127.27922,0 -23.56982,28.28423 -47.13961,56.56799 -70.71068,84.85282 C 183.23155,156.20588 140.80609,113.78042 98.3792,71.353896 126.66392,47.783609 154.94814,24.21342 183.23201,0.64321785 c 3.8e-4,-42.42637085 3.8e-4,-84.85315785 0,-127.27921785 -28.28367,-23.57004 -56.56809,-47.14039 -84.85281,-70.71068 42.4269,-42.42652 84.85365,-84.85328 127.27922,-127.27922 z"
       sodipodi:nodetypes="ccccccccccccccccc" />
  </g>
</svg>
