<?xml version="1.0" encoding="utf-8"?>
<!-- Generator: Adobe Illustrator 22.0.0, SVG Export Plug-In . SVG Version: 6.00 Build 0)  -->
<svg version="1.1"
	 id="svg8" inkscape:version="0.92.2 5c3e80d, 2017-08-06" sodipodi:docname="obf_logo_text_positive.svg" xmlns:cc="http://creativecommons.org/ns#" xmlns:dc="http://purl.org/dc/elements/1.1/" xmlns:inkscape="http://www.inkscape.org/namespaces/inkscape" xmlns:rdf="http://www.w3.org/1999/02/22-rdf-syntax-ns#" xmlns:sodipodi="http://sodipodi.sourceforge.net/DTD/sodipodi-0.dtd" xmlns:svg="http://www.w3.org/2000/svg"
	 xmlns="http://www.w3.org/2000/svg" xmlns:xlink="http://www.w3.org/1999/xlink" x="0px" y="0px" viewBox="0 0 6236.2 2040.9"
	 style="enable-background:new 0 0 6236.2 2040.9;" xml:space="preserve">
<style type="text/css">
	.st0{enable-background:new    ;}
	.st1{fill:#66BD7E;}
	.st2{fill:none;stroke:#66BD7E;stroke-width:10;}
	.st3{fill:none;stroke:#66BD7E;stroke-width:21.7142;stroke-linecap:round;stroke-linejoin:round;}
	.st4{fill:none;stroke:#66BD7E;stroke-width:30;}
</style>
<defs>
	
	
		<inkscape:path-effect  apply_no_weight="true" apply_with_weight="true" effect="bspline" helper_size="0" id="path-effect828" is_visible="true" only_selected="false" steps="2" weight="33.333333">
		</inkscape:path-effect>
	
		<inkscape:path-effect  apply_no_weight="true" apply_with_weight="true" effect="bspline" helper_size="0" id="path-effect4596" is_visible="true" only_selected="false" steps="2" weight="33.333333">
		</inkscape:path-effect>
	
		<inkscape:path-effect  apply_no_weight="true" apply_with_weight="true" effect="bspline" helper_size="0" id="path-effect838" is_visible="true" only_selected="false" steps="2" weight="33.333333">
		</inkscape:path-effect>
	
		<inkscape:path-effect  apply_no_weight="true" apply_with_weight="true" effect="bspline" helper_size="0" id="path-effect822" is_visible="true" only_selected="false" steps="2" weight="33.333333">
		</inkscape:path-effect>
	
		<inkscape:path-effect  apply_no_weight="true" apply_with_weight="true" effect="bspline" helper_size="0" id="path-effect826" is_visible="true" only_selected="false" steps="2" weight="33.333333">
		</inkscape:path-effect>
	
		<inkscape:path-effect  apply_no_weight="true" apply_with_weight="true" effect="bspline" helper_size="0" id="path-effect827" is_visible="true" only_selected="false" steps="2" weight="33.333333">
		</inkscape:path-effect>
	
		<inkscape:path-effect  apply_no_weight="true" apply_with_weight="true" effect="bspline" helper_size="0" id="path-effect828-3" is_visible="true" only_selected="false" steps="2" weight="33.333333">
		</inkscape:path-effect>
	
		<inkscape:path-effect  apply_no_weight="true" apply_with_weight="true" effect="bspline" helper_size="0" id="path-effect4596-8" is_visible="true" only_selected="false" steps="2" weight="33.333333">
		</inkscape:path-effect>
	
		<inkscape:path-effect  apply_no_weight="true" apply_with_weight="true" effect="bspline" helper_size="0" id="path-effect838-0" is_visible="true" only_selected="false" steps="2" weight="33.333333">
		</inkscape:path-effect>
	
		<inkscape:path-effect  apply_no_weight="true" apply_with_weight="true" effect="bspline" helper_size="0" id="path-effect822-2" is_visible="true" only_selected="false" steps="2" weight="33.333333">
		</inkscape:path-effect>
	
		<inkscape:path-effect  apply_no_weight="true" apply_with_weight="true" effect="bspline" helper_size="0" id="path-effect826-3" is_visible="true" only_selected="false" steps="2" weight="33.333333">
		</inkscape:path-effect>
	
		<inkscape:path-effect  apply_no_weight="true" apply_with_weight="true" effect="bspline" helper_size="0" id="path-effect827-8" is_visible="true" only_selected="false" steps="2" weight="33.333333">
		</inkscape:path-effect>
	
		<inkscape:path-effect  apply_no_weight="true" apply_with_weight="true" effect="bspline" helper_size="0" id="path-effect828-0" is_visible="true" only_selected="false" steps="2" weight="33.333333">
		</inkscape:path-effect>
	
		<inkscape:path-effect  apply_no_weight="true" apply_with_weight="true" effect="bspline" helper_size="0" id="path-effect4596-2" is_visible="true" only_selected="false" steps="2" weight="33.333333">
		</inkscape:path-effect>
	
		<inkscape:path-effect  apply_no_weight="true" apply_with_weight="true" effect="bspline" helper_size="0" id="path-effect838-4" is_visible="true" only_selected="false" steps="2" weight="33.333333">
		</inkscape:path-effect>
	
		<inkscape:path-effect  apply_no_weight="true" apply_with_weight="true" effect="bspline" helper_size="0" id="path-effect822-8" is_visible="true" only_selected="false" steps="2" weight="33.333333">
		</inkscape:path-effect>
	
		<inkscape:path-effect  apply_no_weight="true" apply_with_weight="true" effect="bspline" helper_size="0" id="path-effect826-38" is_visible="true" only_selected="false" steps="2" weight="33.333333">
		</inkscape:path-effect>
	
		<inkscape:path-effect  apply_no_weight="true" apply_with_weight="true" effect="bspline" helper_size="0" id="path-effect827-0" is_visible="true" only_selected="false" steps="2" weight="33.333333">
		</inkscape:path-effect>
	
		<inkscape:path-effect  apply_no_weight="true" apply_with_weight="true" effect="bspline" helper_size="0" id="path-effect828-2" is_visible="true" only_selected="false" steps="2" weight="33.333333">
		</inkscape:path-effect>
	
		<inkscape:path-effect  apply_no_weight="true" apply_with_weight="true" effect="bspline" helper_size="0" id="path-effect4596-4" is_visible="true" only_selected="false" steps="2" weight="33.333333">
		</inkscape:path-effect>
	
		<inkscape:path-effect  apply_no_weight="true" apply_with_weight="true" effect="bspline" helper_size="0" id="path-effect838-8" is_visible="true" only_selected="false" steps="2" weight="33.333333">
		</inkscape:path-effect>
	
		<inkscape:path-effect  apply_no_weight="true" apply_with_weight="true" effect="bspline" helper_size="0" id="path-effect822-3" is_visible="true" only_selected="false" steps="2" weight="33.333333">
		</inkscape:path-effect>
</defs>
<sodipodi:namedview  bordercolor="#666666" borderopacity="1.0" id="base" inkscape:current-layer="layer1" inkscape:cx="3855.0421" inkscape:cy="1179.4081" inkscape:document-units="mm" inkscape:pageopacity="0.0" inkscape:pageshadow="2" inkscape:window-height="727" inkscape:window-maximized="0" inkscape:window-width="1092" inkscape:window-x="36" inkscape:window-y="1" inkscape:zoom="0.0625" pagecolor="#ffffff" showgrid="false">
	</sodipodi:namedview>
<g id="layer1" transform="translate(0,423)" inkscape:groupmode="layer" inkscape:label="Layer 1">
	<g class="st0">
		<path class="st1" d="M2194,42.8c0-65.6,9.8-120.7,29.4-165.2c14.6-32.8,34.6-62.3,60-88.3c25.3-26.1,53.1-45.4,83.3-58
			c40.1-17,86.4-25.5,138.9-25.5c94.9,0,170.9,29.4,227.9,88.3c57,58.9,85.5,140.8,85.5,245.7c0,104-28.3,185.4-84.8,244.1
			c-56.5,58.7-132.1,88.1-226.8,88.1c-95.8,0-172-29.2-228.5-87.7C2222.3,225.8,2194,145.3,2194,42.8z M2328,38.4
			c0,72.9,16.8,128.3,50.5,165.9c33.7,37.6,76.5,56.5,128.3,56.5s94.4-18.7,127.7-56c33.2-37.4,49.9-93.4,49.9-168.1
			c0-73.8-16.2-128.9-48.6-165.2c-32.4-36.3-75.4-54.5-129-54.5s-96.8,18.4-129.6,55.2C2344.4-91.2,2328-35.7,2328,38.4z"/>
		<path class="st1" d="M3170.4,360.9v-644.2h208.7c79.1,0,130.7,3.2,154.7,9.7c36.9,9.7,67.8,30.7,92.7,63.1
			c24.9,32.4,37.4,74.2,37.4,125.5c0,39.6-7.2,72.8-21.5,99.8c-14.4,27-32.6,48.1-54.7,63.5c-22.1,15.4-44.6,25.6-67.5,30.5
			c-31.1,6.2-76,9.2-134.9,9.2h-84.8v243H3170.4z M3300.5-174.3V8.5h71.2c51.3,0,85.5-3.4,102.8-10.1c17.3-6.7,30.8-17.3,40.6-31.6
			c9.8-14.4,14.7-31.1,14.7-50.1c0-23.4-6.9-42.8-20.7-58c-13.8-15.2-31.2-24.8-52.3-28.6c-15.5-2.9-46.7-4.4-93.6-4.4H3300.5z"/>
		<path class="st1" d="M4004.5,360.9v-644.2h477.7v109h-347.6v142.8H4458V77.1h-323.4v175.3h359.9v108.5H4004.5z"/>
		<path class="st1" d="M4856.2,360.9v-644.2h126.6l263.7,430.2v-430.2h120.8v644.2h-130.5L4977-59.2v420.1H4856.2z"/>
	</g>
	<g class="st0">
		<path class="st1" d="M2200.3,881.2V573.4h115.5c23.5,0,42.4,3.1,56.6,9.3c14.2,6.2,25.3,15.8,33.4,28.8
			c8,12.9,12.1,26.5,12.1,40.6c0,13.2-3.6,25.5-10.7,37.2c-7.1,11.6-17.9,21-32.3,28.1c18.6,5.5,32.9,14.8,42.9,27.9
			c10,13.2,15,28.7,15,46.6c0,14.4-3,27.8-9.1,40.2s-13.6,21.9-22.6,28.7c-9,6.7-20.2,11.8-33.7,15.2c-13.5,3.4-30.1,5.1-49.7,5.1
			H2200.3z M2241,702.7h66.6c18.1,0,31-1.2,38.8-3.6c10.4-3.1,18.2-8.2,23.4-15.3s7.9-16.1,7.9-26.9c0-10.2-2.5-19.2-7.3-27
			c-4.9-7.8-11.9-13.1-21-16c-9.1-2.9-24.7-4.3-46.8-4.3H2241V702.7z M2241,844.8h76.6c13.2,0,22.4-0.5,27.7-1.5
			c9.4-1.7,17.2-4.5,23.5-8.4c6.3-3.9,11.5-9.6,15.5-17.1c4.1-7.5,6.1-16.1,6.1-25.9c0-11.5-2.9-21.4-8.8-29.9
			c-5.9-8.5-14-14.4-24.5-17.8c-10.4-3.4-25.4-5.1-45-5.1H2241V844.8z"/>
		<path class="st1" d="M2495.7,881.2V573.4h40.7v307.8H2495.7z"/>
		<path class="st1" d="M2595.9,731.3c0-51.1,13.7-91.1,41.2-120c27.4-28.9,62.8-43.4,106.2-43.4c28.4,0,54,6.8,76.8,20.4
			c22.8,13.6,40.2,32.5,52.2,56.8c12,24.3,18,51.8,18,82.6c0,31.2-6.3,59.1-18.9,83.8c-12.6,24.6-30.4,43.3-53.5,56
			c-23.1,12.7-48,19-74.7,19c-29,0-54.9-7-77.7-21c-22.8-14-40.1-33.1-51.9-57.3C2601.8,783.9,2595.9,758.3,2595.9,731.3z
			 M2637.9,731.9c0,37.1,10,66.3,29.9,87.7c19.9,21.3,45,32,75.1,32c30.7,0,55.9-10.8,75.7-32.3c19.8-21.6,29.7-52.1,29.7-91.8
			c0-25.1-4.2-46.9-12.7-65.6c-8.5-18.7-20.9-33.2-37.2-43.5c-16.3-10.3-34.6-15.4-54.9-15.4c-28.8,0-53.6,9.9-74.4,29.7
			C2648.3,652.5,2637.9,685.6,2637.9,731.9z"/>
		<path class="st1" d="M2949.7,881.2V573.4h40.7v307.8H2949.7z"/>
		<path class="st1" d="M3061.8,881.2V573.4h41.8L3265.2,815V573.4h39.1v307.8h-41.8l-161.7-241.9v241.9H3061.8z"/>
		<path class="st1" d="M3374.8,881.2V573.4h207.7v36.3h-166.9V705H3560v36.3h-144.5v139.8H3374.8z"/>
		<path class="st1" d="M3623,731.3c0-51.1,13.7-91.1,41.2-120c27.4-28.9,62.8-43.4,106.2-43.4c28.4,0,54,6.8,76.8,20.4
			c22.8,13.6,40.2,32.5,52.2,56.8c12,24.3,18,51.8,18,82.6c0,31.2-6.3,59.1-18.9,83.8c-12.6,24.6-30.4,43.3-53.5,56
			c-23.1,12.7-48,19-74.7,19c-29,0-54.9-7-77.7-21c-22.8-14-40.1-33.1-51.9-57.3C3628.9,783.9,3623,758.3,3623,731.3z M3665,731.9
			c0,37.1,10,66.3,29.9,87.7c19.9,21.3,45,32,75.1,32c30.7,0,55.9-10.8,75.7-32.3c19.8-21.6,29.7-52.1,29.7-91.8
			c0-25.1-4.2-46.9-12.7-65.6c-8.5-18.7-20.9-33.2-37.2-43.5c-16.3-10.3-34.6-15.4-54.9-15.4c-28.8,0-53.6,9.9-74.4,29.7
			C3675.4,652.5,3665,685.6,3665,731.9z"/>
		<path class="st1" d="M3970.5,881.2V573.4H4107c27.4,0,48.3,2.8,62.6,8.3c14.3,5.5,25.7,15.3,34.2,29.3c8.5,14,12.8,29.5,12.8,46.4
			c0,21.8-7.1,40.2-21.2,55.2c-14.1,15-36,24.5-65.5,28.6c10.8,5.2,19,10.3,24.6,15.3c11.9,10.9,23.2,24.6,33.8,40.9l53.5,83.8
			h-51.2l-40.7-64c-11.9-18.5-21.7-32.6-29.4-42.4c-7.7-9.8-14.6-16.7-20.7-20.6c-6.1-3.9-12.3-6.6-18.6-8.2
			c-4.6-1-12.2-1.5-22.7-1.5h-47.2v136.7H3970.5z M4011.2,709.2h87.6c18.6,0,33.2-1.9,43.7-5.8c10.5-3.8,18.5-10,23.9-18.5
			c5.5-8.5,8.2-17.7,8.2-27.6c0-14.6-5.3-26.5-15.9-35.9c-10.6-9.4-27.3-14.1-50.1-14.1h-97.4V709.2z"/>
		<path class="st1" d="M4279.1,881.2V573.4h61.3l72.9,217.9c6.7,20.3,11.6,35.5,14.7,45.6c3.5-11.2,9-27.6,16.4-49.3l73.7-214.2
			h54.8v307.8h-39.3V623.5l-89.4,257.6h-36.7l-89-262v262H4279.1z"/>
		<path class="st1" d="M4604.8,881.2L4723,573.4h43.9l126,307.8h-46.4l-35.9-93.2h-128.7l-33.8,93.2H4604.8z M4693.6,754.8H4798
			l-32.1-85.2c-9.8-25.9-17.1-47.2-21.8-63.8c-3.9,19.7-9.4,39.3-16.6,58.8L4693.6,754.8z"/>
		<path class="st1" d="M4971.8,881.2V609.7h-101.4v-36.3h244v36.3h-101.8v271.5H4971.8z"/>
		<path class="st1" d="M5163.1,881.2V573.4h40.7v307.8H5163.1z"/>
		<path class="st1" d="M5495.2,773.2l40.7,10.3c-8.5,33.5-23.9,59-46.1,76.5c-22.2,17.6-49.3,26.3-81.4,26.3
			c-33.2,0-60.2-6.8-80.9-20.3c-20.8-13.5-36.6-33.1-47.5-58.7c-10.8-25.6-16.3-53.1-16.3-82.5c0-32.1,6.1-60,18.4-83.9
			c12.2-23.9,29.7-42,52.3-54.4c22.6-12.4,47.5-18.6,74.6-18.6c30.8,0,56.7,7.8,77.7,23.5c21,15.7,35.6,37.7,43.9,66.1l-40.1,9.4
			c-7.1-22.4-17.5-38.7-31.1-48.9c-13.6-10.2-30.7-15.3-51.2-15.3c-23.7,0-43.4,5.7-59.3,17c-15.9,11.3-27.1,26.6-33.5,45.7
			c-6.4,19.1-9.7,38.8-9.7,59.1c0,26.2,3.8,49,11.4,68.6c7.6,19.5,19.5,34.1,35.6,43.8c16.1,9.7,33.5,14.5,52.3,14.5
			c22.8,0,42.1-6.6,57.9-19.7C5478.9,818.7,5489.6,799.1,5495.2,773.2z"/>
		<path class="st1" d="M5572.3,782.3l38.4-3.4c1.8,15.4,6.1,28,12.7,37.9c6.6,9.9,17,17.8,31,23.9c14,6.1,29.7,9.1,47.2,9.1
			c15.5,0,29.3-2.3,41.2-6.9c11.9-4.6,20.8-11,26.6-19c5.8-8,8.7-16.8,8.7-26.4c0-9.7-2.8-18.1-8.4-25.3
			c-5.6-7.2-14.8-13.3-27.7-18.2c-8.3-3.2-26.5-8.2-54.8-15c-28.3-6.8-48.1-13.2-59.4-19.2c-14.7-7.7-25.7-17.3-32.9-28.7
			c-7.2-11.4-10.8-24.2-10.8-38.3c0-15.5,4.4-30.1,13.2-43.6c8.8-13.5,21.7-23.8,38.6-30.8c16.9-7,35.8-10.5,56.5-10.5
			c22.8,0,42.9,3.7,60.4,11s30.8,18.2,40.2,32.4c9.4,14.3,14.4,30.4,15.1,48.5L5769,663c-2.1-19.5-9.2-34.2-21.3-44.1
			c-12.1-9.9-30-14.9-53.6-14.9c-24.6,0-42.6,4.5-53.9,13.5c-11.3,9-16.9,19.9-16.9,32.6c0,11.1,4,20.2,12,27.3
			c7.8,7.1,28.3,14.5,61.4,21.9c33.1,7.5,55.8,14,68.1,19.6c17.9,8.3,31.1,18.7,39.7,31.4c8.5,12.7,12.8,27.3,12.8,43.8
			c0,16.4-4.7,31.8-14.1,46.3c-9.4,14.5-22.9,25.8-40.4,33.8c-17.6,8-37.3,12.1-59.3,12.1c-27.9,0-51.2-4.1-70-12.2
			c-18.8-8.1-33.6-20.3-44.3-36.6C5578.5,821.3,5572.8,802.9,5572.3,782.3z"/>
	</g>
	<g class="st0">
		<path class="st1" d="M2198.1,1472.4v-400.9h270.4v47.3h-217.4V1243h188.1v47.3h-188.1v182.1H2198.1z"/>
		<path class="st1" d="M2521.3,1277.2c0-66.5,17.9-118.6,53.6-156.3c35.7-37.6,81.8-56.5,138.4-56.5c37,0,70.4,8.8,100.1,26.5
			c29.7,17.7,52.4,42.3,67.9,74c15.6,31.6,23.4,67.5,23.4,107.6c0,40.7-8.2,77-24.6,109.1c-16.4,32.1-39.6,56.4-69.7,72.9
			c-30.1,16.5-62.5,24.7-97.3,24.7c-37.7,0-71.5-9.1-101.2-27.3c-29.7-18.2-52.2-43.1-67.5-74.6
			C2528.9,1345.8,2521.3,1312.4,2521.3,1277.2z M2576,1278c0,48.3,13,86.4,39,114.2c26,27.8,58.6,41.7,97.8,41.7
			c39.9,0,72.8-14,98.6-42.1c25.8-28.1,38.7-67.9,38.7-119.5c0-32.6-5.5-61.1-16.5-85.4c-11-24.3-27.2-43.2-48.4-56.6
			c-21.2-13.4-45.1-20.1-71.5-20.1c-37.6,0-69.9,12.9-96.9,38.7C2589.5,1174.6,2576,1217.7,2576,1278z"/>
		<path class="st1" d="M3236,1071.6h53v231.6c0,40.3-4.6,72.3-13.7,96c-9.1,23.7-25.6,43-49.4,57.8c-23.8,14.9-55,22.3-93.7,22.3
			c-37.6,0-68.3-6.5-92.1-19.4c-23.9-12.9-40.9-31.7-51.1-56.2c-10.2-24.5-15.3-58-15.3-100.5v-231.6h53v231.3
			c0,34.8,3.2,60.5,9.7,77c6.5,16.5,17.6,29.2,33.4,38.1c15.8,8.9,35,13.4,57.8,13.4c39,0,66.8-8.8,83.4-26.5
			c16.6-17.7,24.9-51.7,24.9-102V1071.6z"/>
		<path class="st1" d="M3376.9,1472.4v-400.9h54.4l210.5,314.7v-314.7h50.9v400.9h-54.4l-210.5-315v315H3376.9z"/>
		<path class="st1" d="M3781.8,1472.4v-400.9h138.1c31.2,0,55,1.9,71.4,5.7c23,5.3,42.6,14.9,58.8,28.7c21.1,17.9,37,40.7,47.4,68.5
			c10.5,27.8,15.7,59.6,15.7,95.3c0,30.4-3.6,57.4-10.7,80.9s-16.2,43-27.3,58.4c-11.1,15.4-23.3,27.5-36.5,36.4
			c-13.2,8.8-29.2,15.5-47.9,20.1c-18.7,4.6-40.2,6.8-64.4,6.8H3781.8z M3834.9,1425.1h85.6c26.4,0,47.2-2.5,62.2-7.4
			s27-11.8,36-20.8c12.6-12.6,22.4-29.5,29.4-50.7c7-21.2,10.5-47,10.5-77.2c0-41.9-6.9-74.1-20.6-96.7
			c-13.8-22.5-30.5-37.6-50.2-45.3c-14.2-5.5-37.1-8.2-68.6-8.2h-84.2V1425.1z"/>
		<path class="st1" d="M4142.2,1472.4l153.9-400.9h57.1l164.1,400.9h-60.4l-46.8-121.4h-167.6l-44,121.4H4142.2z M4257.9,1307.8
			h135.9l-41.8-111c-12.8-33.7-22.2-61.4-28.4-83.1c-5.1,25.7-12.3,51.2-21.6,76.6L4257.9,1307.8z"/>
		<path class="st1" d="M4620.2,1472.4v-353.6h-132.1v-47.3h317.7v47.3h-132.6v353.6H4620.2z"/>
		<path class="st1" d="M4869.3,1472.4v-400.9h53v400.9H4869.3z"/>
		<path class="st1" d="M4999.7,1277.2c0-66.5,17.9-118.6,53.6-156.3c35.7-37.6,81.8-56.5,138.4-56.5c37,0,70.4,8.8,100.1,26.5
			c29.7,17.7,52.4,42.3,67.9,74c15.6,31.6,23.4,67.5,23.4,107.6c0,40.7-8.2,77-24.6,109.1c-16.4,32.1-39.6,56.4-69.7,72.9
			c-30.1,16.5-62.5,24.7-97.3,24.7c-37.7,0-71.5-9.1-101.2-27.3c-29.7-18.2-52.2-43.1-67.5-74.6
			C5007.4,1345.8,4999.7,1312.4,4999.7,1277.2z M5054.4,1278c0,48.3,13,86.4,39,114.2c26,27.8,58.6,41.7,97.8,41.7
			c39.9,0,72.8-14,98.6-42.1c25.8-28.1,38.7-67.9,38.7-119.5c0-32.6-5.5-61.1-16.5-85.4c-11-24.3-27.2-43.2-48.4-56.6
			c-21.2-13.4-45.1-20.1-71.5-20.1c-37.6,0-69.9,12.9-96.9,38.7C5067.9,1174.6,5054.4,1217.7,5054.4,1278z"/>
		<path class="st1" d="M5450.9,1472.4v-400.9h54.4l210.5,314.7v-314.7h50.9v400.9h-54.4l-210.5-315v315H5450.9z"/>
	</g>
	<g id="layer1-5" transform="translate(0.41665278,-0.41658278)" inkscape:label="Layer 1">
		
			<path id="path4594" inkscape:connector-curvature="0" inkscape:original-d="m 80,-153 c 36.66653,3.33303 72.68033,6.60701 110,10 30.53476,-30.53476 60.00021,-60.00021 90,-90 -3.33308,-36.667 -6.63024,-72.93577 -10,-110 60.65125,-2.6e-4 120.00024,-2.6e-4 180,0 -3.33307,36.66642 -6.6664,73.33307 -10,110 30.00026,29.99973 59.57342,59.57289 90,90 37.18863,-3.38103 73.33325,-6.6669 110,-10 2.6e-4,60.000304 2.6e-4,119.999069 0,180 -36.66681,-3.333635 -73.33322,-6.666945 -110,-10 -29.99961,29.99961 -59.99978,59.999782 -90,90 3.33359,36.66635 6.66687,73.33235 10,110 -60.00092,-2.6e-4 -119.99957,-2.6e-4 -180,0 3.33361,-36.66703 6.66693,-73.33363 10,-110 -29.99971,-30.000239 -59.99998,-60.000506 -90,-90 -36.66611,3.333042 -73.33297,6.666393 -110,10 2.65e-4,-60.000427 2.65e-4,-120.000923 0,-180 z" inkscape:path-effect="#path-effect4596-4" sodipodi:nodetypes="ccccccccccccccccc" class="st2" d="
			M279.5,431.4c52-80.3,154.1-71,250.2-109.5s179.7-122,217.5-216.5C785,10.9,775.7-91.9,856.9-144.5s249.4-52.5,329.7-0.6
			c80.3,52,70.9,155.9,108.7,250.4s121.6,178.3,217.5,216.7S1711,351,1763,431.4c52,80.3,52,250.4,0,330.7s-155.9,70.9-250.4,108.7
			c-94.5,37.8-179.5,122.8-217.3,217.3c-37.8,94.5-28.3,198.4-108.7,250.4c-80.3,52-250.4,52-330.7,0
			c-80.3-52-70.9-155.9-108.7-250.4c-37.8-94.5-122.8-179.5-217.3-217.3c-94.5-37.8-198.4-28.3-250.4-108.7S227.5,511.7,279.5,431.4
			z"/>
		<path id="rect824" inkscape:connector-curvature="0" class="st1" d="M929.3,483.3c-66.8,0-120.7,53.8-120.7,120.7v183.9
			c0,66.8,53.8,120.7,120.7,120.7h183.9c66.8,0,120.7-53.8,120.7-120.7V604c0-66.8-53.8-120.7-120.7-120.7H929.3z M1021.2,582.5
			c39.1,0,70.9,31.7,70.9,70.9c0,25.3-13.5,48.6-35.4,61.3v68.2c0,22.5-15.8,40.6-35.4,40.6c-19.6,0-35.4-18.1-35.4-40.6v-68.2
			c-21.9-12.6-35.4-36-35.4-61.3C950.4,614.3,982.1,582.5,1021.2,582.5C1021.2,582.5,1021.2,582.5,1021.2,582.5z"/>
		
			<path id="path826" inkscape:connector-curvature="0" inkscape:original-d="m 326.4493,-82.453789 c -9.96147,-25.778181 -19.92343,-51.556821 -29.88491,-77.333401 7.64603,-2.62466 15.29218,-5.24887 22.93827,-7.87319 7.4232,-2.54783 14.84653,-5.09594 22.26957,-7.64343 7.67934,-2.63603 15.35847,-5.27154 23.03745,-7.90708 6.05673,-2.07877 12.1133,-4.15766 18.17006,-6.2361 5.06147,11.23103 10.12227,22.46142 15.18308,33.69267" inkscape:path-effect="#path-effect828-2" sodipodi:nodetypes="ccccccc" class="st3" d="
			M926.1,541.6c-28.2-73.1-56.5-146.1-59.8-186.4c-3.3-40.3,18.4-47.7,39.8-55c21.4-7.3,42.4-14.6,63.8-21.9s43.2-14.8,62.6-21.5
			c19.5-6.7,36.6-12.6,52.4,0.4c15.8,13,30.1,44.8,44.4,76.6"/>
		
			<path id="path824" inkscape:connector-curvature="0" inkscape:original-d="m 225.65842,-324.6259 c 23.57034,28.28396 46.72089,56.06461 70.71068,84.85281 43.18267,0 84.85311,0 127.27922,0 23.57064,-28.28433 46.88509,-56.26166 70.71068,-84.85281 42.88709,42.88672 84.85316,84.8528 127.27922,127.27922 -28.28391,23.57024 -56.56817,47.14045 -84.85282,70.71068 3.8e-4,42.426397 3.8e-4,84.249161 0,127.27921785 C 565.47249,24.548801 593.35405,47.783446 621.63822,71.353896 579.21178,113.7807 536.78625,156.20624 494.359,198.63312 470.78888,170.34853 447.21882,142.06446 423.64832,113.7803 c -42.42586,0 -84.8525,0 -127.27922,0 -23.56982,28.28423 -47.13961,56.56799 -70.71068,84.85282 C 183.23155,156.20588 140.80609,113.78042 98.3792,71.353896 126.66392,47.783609 154.94814,24.21342 183.23201,0.64321785 c 3.8e-4,-42.42637085 3.8e-4,-84.85315785 0,-127.27921785 -28.28367,-23.57004 -56.56809,-47.14039 -84.85281,-70.71068 42.4269,-42.42652 84.85365,-84.85328 127.27922,-127.27922 z" inkscape:path-effect="#path-effect826-38" sodipodi:nodetypes="ccccccccccccccccc" class="st4" d="
			M613.7-44.7c93.5-20,159.2,58.7,254.4,99.5s213.3,40.8,306.9,0.7c93.5-40.1,159.6-119.4,254.2-99.1
			c94.6,20.3,213.5,139.2,233.6,232.8c20,93.5-60.1,160.4-100.2,253.9c-40.1,93.5-40.1,212.1,0.6,307
			c40.7,94.9,119.7,160.7,99.6,254.3c-20,93.5-140.3,213.8-233.8,233.8c-93.5,20-160.4-60.1-253.9-100.2
			c-93.5-40.1-213.8-40.1-307.3,0s-160.4,120.3-253.9,100.2s-213.8-140.3-233.8-233.8c-20-93.5,60.1-160.4,100.2-253.9
			s40.1-213.8,0-307.3S359.8,282.7,379.9,189.2C399.9,95.6,520.2-24.6,613.7-44.7L613.7-44.7z"/>
	</g>
</g>
</svg>
