<?xml version="1.0" encoding="UTF-8" standalone="no"?><svg xmlns="http://www.w3.org/2000/svg" xmlns:xlink="http://www.w3.org/1999/xlink" clip-rule="evenodd" stroke-miterlimit="10" viewBox="0 0 1024 768"><desc>SVG generated by Keynote</desc><defs></defs><g transform="matrix(1.00, 0.00, -0.00, -1.00, 0.0, 768.0)"><g><clipPath id="clip0x608000aa4aa0"><path d="M 0.0 768.0 L 1024.0 768.0 L 1024.0 0.0 L 0.0 0.0 Z M 0.0 768.0 "></path></clipPath><g clip-path="url(#clip0x608000aa4aa0)"><image xlink:href="../../6CCEAA6E-8BB5-465D-8F4F-15040D485A15/assets/A26A31D53D3A482F596EEDFB4E479282.jpeg" width="1024.00" height="768.00" transform="matrix(1.00, 0.00, -0.00, -1.00, 0.0, 768.0)"></image></g></g><text xml:space="preserve" font-family="AmericanTypewriter,American Typewriter" font-size="58.0" fill="#FFFFFF" transform="matrix(1.00, 0.00, -0.00, -1.00, 95.2, 699.5)">W</text><text xml:space="preserve" font-family="AmericanTypewriter,American Typewriter" font-size="58.0" fill="#FFFFFF" transform="matrix(1.00, 0.00, -0.00, -1.00, 145.4, 699.5)">e</text><text xml:space="preserve" font-family="AmericanTypewriter,American Typewriter" font-size="58.0" fill="#FFFFFF" transform="matrix(1.00, 0.00, -0.00, -1.00, 176.1, 699.5)"> </text><text xml:space="preserve" font-family="AmericanTypewriter,American Typewriter" font-size="58.0" fill="#FFFFFF" transform="matrix(1.00, 0.00, -0.00, -1.00, 190.6, 699.5)">u</text><text xml:space="preserve" font-family="AmericanTypewriter,American Typewriter" font-size="58.0" fill="#FFFFFF" transform="matrix(1.00, 0.00, -0.00, -1.00, 226.5, 699.5)">s</text><text xml:space="preserve" font-family="AmericanTypewriter,American Typewriter" font-size="58.0" fill="#FFFFFF" transform="matrix(1.00, 0.00, -0.00, -1.00, 255.0, 699.5)">e</text><text xml:space="preserve" font-family="AmericanTypewriter,American Typewriter" font-size="58.0" fill="#FFFFFF" transform="matrix(1.00, 0.00, -0.00, -1.00, 285.6, 699.5)"> </text><text xml:space="preserve" font-family="AmericanTypewriter,American Typewriter" font-size="58.0" fill="#FFFFFF" transform="matrix(1.00, 0.00, -0.00, -1.00, 300.1, 699.5)">o</text><text xml:space="preserve" font-family="AmericanTypewriter,American Typewriter" font-size="58.0" fill="#FFFFFF" transform="matrix(1.00, 0.00, -0.00, -1.00, 331.8, 699.5)">p</text><text xml:space="preserve" font-family="AmericanTypewriter,American Typewriter" font-size="58.0" fill="#FFFFFF" transform="matrix(1.00, 0.00, -0.00, -1.00, 366.6, 699.5)">e</text><text xml:space="preserve" font-family="AmericanTypewriter,American Typewriter" font-size="58.0" fill="#FFFFFF" transform="matrix(1.00, 0.00, -0.00, -1.00, 397.2, 699.5)">n</text><text xml:space="preserve" font-family="AmericanTypewriter,American Typewriter" font-size="58.0" fill="#FFFFFF" transform="matrix(1.00, 0.00, -0.00, -1.00, 434.2, 699.5)"> </text><text xml:space="preserve" font-family="AmericanTypewriter,American Typewriter" font-size="58.0" fill="#FFFFFF" transform="matrix(1.00, 0.00, -0.00, -1.00, 448.7, 699.5)">a</text><text xml:space="preserve" font-family="AmericanTypewriter,American Typewriter" font-size="58.0" fill="#FFFFFF" transform="matrix(1.00, 0.00, -0.00, -1.00, 481.4, 699.5)">n</text><text xml:space="preserve" font-family="AmericanTypewriter,American Typewriter" font-size="58.0" fill="#FFFFFF" transform="matrix(1.00, 0.00, -0.00, -1.00, 518.3, 699.5)">d</text><text xml:space="preserve" font-family="AmericanTypewriter,American Typewriter" font-size="58.0" fill="#FFFFFF" transform="matrix(1.00, 0.00, -0.00, -1.00, 553.1, 699.5)"> </text><text xml:space="preserve" font-family="AmericanTypewriter,American Typewriter" font-size="58.0" fill="#FFFFFF" transform="matrix(1.00, 0.00, -0.00, -1.00, 567.6, 699.5)">c</text><text xml:space="preserve" font-family="AmericanTypewriter,American Typewriter" font-size="58.0" fill="#FFFFFF" transform="matrix(1.00, 0.00, -0.00, -1.00, 597.2, 699.5)">o</text><text xml:space="preserve" font-family="AmericanTypewriter,American Typewriter" font-size="58.0" fill="#FFFFFF" transform="matrix(1.00, 0.00, -0.00, -1.00, 628.9, 699.5)">l</text><text xml:space="preserve" font-family="AmericanTypewriter,American Typewriter" font-size="58.0" fill="#FFFFFF" transform="matrix(1.00, 0.00, -0.00, -1.00, 646.8, 699.5)">l</text><text xml:space="preserve" font-family="AmericanTypewriter,American Typewriter" font-size="58.0" fill="#FFFFFF" transform="matrix(1.00, 0.00, -0.00, -1.00, 664.7, 699.5)">a</text><text xml:space="preserve" font-family="AmericanTypewriter,American Typewriter" font-size="58.0" fill="#FFFFFF" transform="matrix(1.00, 0.00, -0.00, -1.00, 697.4, 699.5)">b</text><text xml:space="preserve" font-family="AmericanTypewriter,American Typewriter" font-size="58.0" fill="#FFFFFF" transform="matrix(1.00, 0.00, -0.00, -1.00, 730.1, 699.5)">o</text><text xml:space="preserve" font-family="AmericanTypewriter,American Typewriter" font-size="58.0" fill="#FFFFFF" transform="matrix(1.00, 0.00, -0.00, -1.00, 761.8, 699.5)">r</text><text xml:space="preserve" font-family="AmericanTypewriter,American Typewriter" font-size="58.0" fill="#FFFFFF" transform="matrix(1.00, 0.00, -0.00, -1.00, 790.3, 699.5)">a</text><text xml:space="preserve" font-family="AmericanTypewriter,American Typewriter" font-size="58.0" fill="#FFFFFF" transform="matrix(1.00, 0.00, -0.00, -1.00, 823.0, 699.5)">t</text><text xml:space="preserve" font-family="AmericanTypewriter,American Typewriter" font-size="58.0" fill="#FFFFFF" transform="matrix(1.00, 0.00, -0.00, -1.00, 846.2, 699.5)">i</text><text xml:space="preserve" font-family="AmericanTypewriter,American Typewriter" font-size="58.0" fill="#FFFFFF" transform="matrix(1.00, 0.00, -0.00, -1.00, 864.2, 699.5)">v</text><text xml:space="preserve" font-family="AmericanTypewriter,American Typewriter" font-size="58.0" fill="#FFFFFF" transform="matrix(1.00, 0.00, -0.00, -1.00, 898.2, 699.5)">e</text><text xml:space="preserve" font-family="AmericanTypewriter,American Typewriter" font-size="58.0" fill="#FFFFFF" transform="matrix(1.00, 0.00, -0.00, -1.00, 928.8, 699.5)"> </text><text xml:space="preserve" font-family="AmericanTypewriter,American Typewriter" font-size="58.0" fill="#FFFFFF" transform="matrix(1.00, 0.00, -0.00, -1.00, 376.3, 632.5)">p</text><text xml:space="preserve" font-family="AmericanTypewriter,American Typewriter" font-size="58.0" fill="#FFFFFF" transform="matrix(1.00, 0.00, -0.00, -1.00, 411.1, 632.5)">r</text><text xml:space="preserve" font-family="AmericanTypewriter,American Typewriter" font-size="58.0" fill="#FFFFFF" transform="matrix(1.00, 0.00, -0.00, -1.00, 439.6, 632.5)">o</text><text xml:space="preserve" font-family="AmericanTypewriter,American Typewriter" font-size="58.0" fill="#FFFFFF" transform="matrix(1.00, 0.00, -0.00, -1.00, 471.3, 632.5)">c</text><text xml:space="preserve" font-family="AmericanTypewriter,American Typewriter" font-size="58.0" fill="#FFFFFF" transform="matrix(1.00, 0.00, -0.00, -1.00, 500.8, 632.5)">e</text><text xml:space="preserve" font-family="AmericanTypewriter,American Typewriter" font-size="58.0" fill="#FFFFFF" transform="matrix(1.00, 0.00, -0.00, -1.00, 531.5, 632.5)">s</text><text xml:space="preserve" font-family="AmericanTypewriter,American Typewriter" font-size="58.0" fill="#FFFFFF" transform="matrix(1.00, 0.00, -0.00, -1.00, 560.0, 632.5)">s</text><text xml:space="preserve" font-family="AmericanTypewriter,American Typewriter" font-size="58.0" fill="#FFFFFF" transform="matrix(1.00, 0.00, -0.00, -1.00, 588.5, 632.5)">e</text><text xml:space="preserve" font-family="AmericanTypewriter,American Typewriter" font-size="58.0" fill="#FFFFFF" transform="matrix(1.00, 0.00, -0.00, -1.00, 619.2, 632.5)">s</text><image xlink:href="A58B9FCEA08B325B91EE2B0091268745.png" width="950.00" height="840.00" transform="matrix(1.05, 0.00, -0.00, -1.05, 11.0, 609.0)"></image></g></svg>